<svg width="186" height="363" viewBox="0 0 186 363" fill="none" xmlns="http://www.w3.org/2000/svg">
<mask id="path-1-inside-1_2_1094" fill="white">
<path d="M59.7539 0.99262C56.0197 31.3751 57.0998 52.6488 73.3292 91.3342L73.394 91.4286L73.9689 95.3808L73.9108 95.5959C73.8881 95.6932 73.8914 95.7947 73.9201 95.8904C73.9489 95.9861 74.0022 96.0725 74.0748 96.1412L75.1891 103.82L75.5521 106.28C74.0961 104.439 72.7718 102.562 71.4845 100.731L69.4653 97.9011C68.0577 95.8917 66.6038 93.8164 65.0748 91.7591C61.1328 86.4899 56.878 81.4621 52.3332 76.7029C44.0649 67.9769 35.1616 60.0423 25.7465 51.6532L23.0485 49.2482C22.9487 49.1651 22.8232 49.119 22.6933 49.1179C22.5635 49.1168 22.4372 49.1606 22.336 49.242C22.2308 49.319 22.1545 49.429 22.1194 49.5546C22.0843 49.6801 22.0924 49.8138 22.1424 49.9341C25.1107 56.773 28.5784 63.3841 32.5176 69.7138C35.7687 74.9027 39.4789 79.7893 43.6036 84.3149C47.7012 88.765 52.1661 92.8624 56.9509 96.5636C58.2174 97.5591 59.5214 98.5456 60.9 99.5702C62.2787 100.595 63.863 101.696 65.3172 102.656C68.6468 104.885 72.1769 106.8 75.862 108.373C76.2953 111.359 76.7446 114.672 77.36 118.287L78.9154 128.061C74.8262 122.532 70.2285 117.397 65.1825 112.724C62.821 110.435 60.5354 108.043 58.1948 105.519C55.6308 102.796 52.974 99.9698 50.0823 97.2069C40.459 87.9627 28.5506 79.4956 12.624 70.5715C12.5084 70.506 12.3732 70.4835 12.2426 70.5081C12.1119 70.5327 11.9942 70.6028 11.9103 70.7059C11.823 70.8056 11.7743 70.9332 11.7732 71.0657C11.772 71.1982 11.8184 71.3267 11.904 71.4278C24.7977 87.3104 33.1254 96.7589 41.6122 105.149C46.5673 109.984 51.1798 114.327 57.4353 118.413C58.2465 118.927 59.0766 119.431 59.9441 119.935L67.6343 123.997C68.7262 124.578 69.8369 125.16 70.9755 125.76C73.5514 127.105 76.2113 128.506 78.9919 130.04C79.0683 130.085 79.1557 130.109 79.2445 130.108L80.3556 137.084C80.8387 139.741 81.3209 142.493 81.8119 145.319C72.3627 136.612 62.3063 128.588 51.719 121.308C40.2292 113.362 28.1516 106.301 15.5909 100.187C15.5297 100.143 15.4603 100.11 15.3866 100.092C15.3129 100.074 15.2364 100.071 15.1614 100.082C15.0865 100.094 15.0145 100.12 14.9496 100.159C14.8848 100.199 14.8283 100.25 14.7835 100.312C14.7386 100.373 14.7062 100.442 14.6882 100.516C14.6702 100.59 14.6668 100.666 14.6784 100.741C14.6899 100.816 14.7161 100.888 14.7554 100.953C14.7948 101.018 14.8465 101.074 14.9077 101.119C26.2026 114.344 34.7022 123.419 44.7093 130.585C55.0521 137.951 66.6325 143.171 82.1962 147.488C82.8661 151.301 83.5724 155.245 84.3526 159.302C84.9729 162.354 85.5833 165.472 86.2208 168.694C75.5892 158.963 63.2407 150.436 48.4581 142.581C42.4015 139.34 35.5673 136.027 26.9849 132.136C24.9493 131.181 22.9037 130.301 20.8583 129.392C15.6655 127.087 10.3047 124.696 5.17097 122.064C5.05137 122.005 4.91516 121.989 4.78517 122.019C4.65518 122.048 4.53932 122.122 4.45699 122.226C4.3707 122.328 4.32282 122.457 4.32165 122.591C4.32049 122.724 4.36611 122.854 4.45061 122.958C7.5848 126.436 10.9384 129.709 14.4909 132.759C17.4311 135.344 20.5872 137.903 24.1359 140.587C29.9388 144.969 36.0416 148.938 42.3994 152.466C55.1358 159.516 68.6498 164.49 86.3946 170.27C86.4347 170.28 86.4763 170.28 86.5165 170.272C87.4154 174.705 88.3133 179.241 89.4641 183.827L90.0694 186.438C77.1462 177.278 63.458 169.247 49.1567 162.435C33.9433 155.191 17.9871 149.622 1.56955 145.828C1.43946 145.797 1.30261 145.814 1.18353 145.875C1.06445 145.935 0.970923 146.037 0.919722 146.16C0.862972 146.284 0.853924 146.424 0.894311 146.554C0.934698 146.685 1.02168 146.795 1.13859 146.865C5.16661 149.422 8.87711 151.836 12.3263 154.107C16.4377 156.787 20.3253 159.315 24.018 161.616C30.3176 165.621 36.8232 169.293 43.5081 172.615C50.2039 175.893 57.1146 178.713 64.1924 181.056C72.7583 183.89 81.4855 186.211 90.3277 188.006L90.3839 188.007L90.8986 190.271C91.3955 192.422 91.8734 194.602 92.4827 196.763L95.1152 206.668C82.7483 198.334 69.6534 191.134 55.9903 185.156C40.5338 178.233 24.3448 172.514 11.9305 168.308C11.8029 168.266 11.6648 168.27 11.5396 168.318C11.4145 168.367 11.3099 168.457 11.2437 168.574C11.1782 168.69 11.1557 168.825 11.1803 168.955C11.2049 169.086 11.275 169.204 11.3782 169.288C26.5605 181.843 38.3057 189.662 50.6499 195.461C62.9941 201.259 76.5089 205.062 95.5417 208.294L95.9775 209.92C96.5207 212.137 97.28 214.31 97.9359 216.5L99.9782 223.137L100.625 225.252C77.5481 208.465 48.5128 196.473 11.9582 188.766C11.8261 188.737 11.6878 188.756 11.5681 188.819C11.4484 188.882 11.3549 188.985 11.3043 189.111C11.2538 189.236 11.2493 189.376 11.2918 189.504C11.3344 189.633 11.4211 189.742 11.5366 189.813C29.1433 200.673 41.9144 208.042 55.086 213.566C68.7902 219.312 82.9794 223.186 101.337 227.453L101.547 228.139L102.133 229.785L104.485 236.368L106.828 242.952C107.578 245.04 108.489 247.073 109.315 249.133C95.5983 238.926 80.6005 230.564 64.706 224.264C60.3708 222.529 56.0343 220.935 51.8181 219.529C46.536 217.786 42.4025 216.569 38.417 215.587C27.5552 212.895 18.1204 212.138 9.56919 213.272C9.43382 213.293 9.30977 213.36 9.21824 213.462C9.12671 213.563 9.07339 213.694 9.0674 213.831C9.07442 213.965 9.12414 214.093 9.20928 214.196C9.29442 214.3 9.4105 214.374 9.54054 214.407C14.7901 215.367 19.9289 216.857 24.878 218.853C29.447 220.665 33.5833 222.623 37.4207 224.466C44.4879 227.931 52.0224 231.569 59.5896 234.692C73.602 240.562 87.6838 244.932 110.233 251.373L112.069 255.824L113.391 259.023C113.86 260.077 114.367 261.103 114.845 262.148L117.138 266.941C111.533 264.641 106.193 261.979 101.021 259.393C99.1543 258.458 97.2872 257.529 95.4201 256.606C89.2772 253.581 81.1169 249.675 72.3895 246.289C64.2148 243.036 55.7644 240.524 47.1403 238.784C37.1066 236.821 28.2127 236.396 19.962 237.468C19.8282 237.488 19.7053 237.554 19.614 237.654C19.5227 237.754 19.4684 237.882 19.4603 238.017C19.45 238.152 19.4895 238.286 19.5715 238.394C19.6535 238.502 19.7723 238.576 19.9053 238.602L24.5839 239.665C24.9863 239.753 25.3887 239.841 25.7535 239.938L31.1394 241.597C31.8502 241.8 32.5511 242.069 33.2425 242.338L34.4575 242.78L37.6538 243.951C38.2612 244.191 38.8683 244.449 39.4662 244.698L40.6993 245.215L43.6515 246.423C44.212 246.662 44.7723 246.911 45.3233 247.168C45.7155 247.341 46.0985 247.513 46.4814 247.676L52.272 250.248C57.4928 252.572 62.4241 254.762 67.4598 256.803C74.6107 259.712 81.9352 262.174 89.391 264.176C94.0026 265.398 98.2512 266.316 102.436 267.009C104.749 267.376 107.118 267.753 109.666 267.944C110.088 267.948 110.509 268.008 110.921 268.058C111.765 268.141 112.636 268.223 113.536 268.222L117.53 268.257C117.608 268.258 117.686 268.24 117.755 268.202L120.701 274.472L126.983 286.2L127.998 288.084C121.716 284.879 115.238 281.616 108.56 278.623C101.104 275.229 93.4264 272.343 85.5807 269.984C77.3931 267.507 68.9589 265.934 60.4289 265.292C51.6343 264.592 42.7843 265.322 34.2234 267.455C34.0936 267.488 33.9798 267.566 33.9017 267.675C33.8236 267.784 33.7863 267.917 33.7963 268.051C33.8094 268.185 33.8682 268.311 33.9629 268.408C34.0576 268.504 34.1825 268.565 34.3168 268.58C44.7999 269.535 53.1239 271.876 60.7544 274.184C64.3637 275.303 67.7855 276.42 71.0389 277.499C74.6476 278.683 78.06 279.801 81.5479 280.862C89.1125 283.197 95.9038 284.982 102.932 286.459C111.574 288.314 120.335 289.556 129.152 290.175L130.122 291.797L133.403 297.244L135.475 300.516C107.802 290.364 75.6689 285.208 34.3577 284.304C34.2209 284.301 34.0877 284.347 33.982 284.434C33.8763 284.521 33.8052 284.642 33.7816 284.777C33.7573 284.91 33.7812 285.048 33.8488 285.165C33.9165 285.283 34.0236 285.372 34.1511 285.418C56.0862 293.419 70.1426 297.471 84.3081 299.779C98.7262 302.136 113.675 302.735 135.904 301.851C136.004 301.845 136.101 301.814 136.186 301.76L136.694 302.589C137.785 304.324 138.943 305.984 140.044 307.663L146.522 317.348L148.987 320.66C136.207 315.07 122.568 311.695 108.656 310.68C93.3684 309.547 77.998 310.53 62.9794 313.6C62.8494 313.623 62.732 313.693 62.6486 313.795C62.5651 313.898 62.5211 314.026 62.5245 314.159C62.5237 314.291 62.5698 314.42 62.6547 314.522C62.7396 314.624 62.8578 314.693 62.9884 314.716C66.2177 315.335 69.2597 315.924 72.1612 316.493C85.789 319.171 96.5533 321.215 107.158 322.171C119.608 323.423 132.267 323.187 149.775 322.852L150.628 322.859L153.028 326.134L156.067 330.267L157.54 332.258L159.043 334.146L164.691 341.209C166.472 343.427 168.113 345.523 169.671 347.412L174.052 352.522L182.312 362.205L184.201 360.609L175.847 350.954L171.438 345.871C169.879 343.982 168.247 341.924 166.466 339.733L160.827 332.737L159.315 330.848L157.842 328.876L154.802 324.78L148.315 316.079L146.223 312.976C149.393 308.569 152.543 304.359 155.823 300.15C159.104 295.94 162.383 291.994 165.86 287.833L166.532 287.061C170.457 282.469 174.088 277.635 177.403 272.586C180.999 267.159 183.639 261.157 185.209 254.84L185.21 254.718C185.211 254.609 185.182 254.503 185.124 254.411C185.067 254.319 184.984 254.245 184.886 254.199C184.769 254.144 184.636 254.129 184.51 254.159C184.384 254.189 184.271 254.26 184.191 254.362C181.924 257.154 179.437 259.76 176.753 262.154C174.75 263.956 172.842 265.561 170.991 267.11L169.773 268.141C165.496 271.562 161.503 275.325 157.833 279.39C150.342 287.96 146.005 298.208 144.612 310.637L141.835 306.497C140.734 304.837 139.567 303.196 138.476 301.47L135.222 296.163L134.233 294.542C145.456 287.774 155.435 279.13 163.737 268.988C172.492 258.313 179.413 246.258 184.215 233.314L184.217 233.117C184.22 233.019 184.196 232.922 184.149 232.836C184.102 232.75 184.033 232.678 183.949 232.627C183.838 232.558 183.707 232.529 183.577 232.545C183.447 232.561 183.327 232.621 183.236 232.714C179.196 236.842 175.433 240.466 172.124 243.662C170.479 245.251 168.909 246.766 167.396 248.234C162.223 253.298 158.419 257.316 155.094 261.253C148.264 269.275 142.166 278.307 133.475 293.335L131.931 290.809L130.258 288.066C129.713 287.124 129.224 286.182 128.698 285.24L125.745 279.804C145.683 268.474 163.364 250.486 179.751 224.818C179.82 224.707 179.85 224.577 179.836 224.448C179.821 224.318 179.764 224.198 179.673 224.105C179.581 224.012 179.46 223.954 179.33 223.941C179.2 223.928 179.07 223.96 178.961 224.033C150.44 242.367 141.057 251.707 124.906 278.25L122.396 273.549L118.428 265.255C125.295 261.593 131.908 257.476 138.225 252.93C144.883 248.175 151.091 242.819 156.769 236.928C162.618 230.798 167.742 224.016 172.04 216.715C176.301 209.421 180.082 201.856 183.358 194.069C183.372 193.994 183.372 193.918 183.359 193.844C183.361 193.748 183.338 193.654 183.292 193.57C183.247 193.486 183.181 193.415 183.101 193.363C182.988 193.289 182.853 193.257 182.719 193.273C182.585 193.289 182.461 193.352 182.369 193.451C174.893 201.439 169.186 207.493 163.916 212.979C160.065 216.986 156.489 220.621 153.036 224.135L148.836 228.42C144.636 232.725 139.593 237.959 134.081 244.23C129.006 249.99 123.661 256.459 117.755 263.974L116.493 261.347C116.014 260.321 115.508 259.294 115.029 258.259L113.707 255.088L111.383 249.517C125.697 244.203 138.707 235.886 149.54 225.126C155.232 219.529 160.275 213.308 164.572 206.581C169.04 199.699 172.432 192.175 174.63 184.27C174.639 184.223 174.64 184.176 174.631 184.129C174.631 184.009 174.594 183.892 174.524 183.794C174.454 183.697 174.356 183.624 174.242 183.585C174.128 183.547 174.005 183.545 173.89 183.581C173.776 183.616 173.675 183.687 173.603 183.783L171.411 186.736C170.984 187.332 170.463 187.909 170.027 188.458L169.232 189.389C168.141 190.748 166.987 191.994 165.879 193.203L164.932 194.255C164.118 195.185 163.258 196.012 162.435 196.839C161.848 197.425 161.281 198.001 160.751 198.559L156.685 202.499C154.397 204.664 152.195 206.707 150.068 208.695C147.232 211.333 144.519 213.831 141.853 216.405C137.494 220.586 132.963 225.169 127.664 230.804L124.73 233.91C120.727 238.151 116.213 242.94 110.982 248.267C110.155 246.272 109.272 244.304 108.531 242.273L106.169 235.745L103.798 229.162L103.248 227.647C109.869 227.527 117.255 225.566 124.722 221.909C131.901 218.316 138.532 213.721 144.418 208.261C150.42 202.76 155.786 196.601 160.414 189.902C165.152 183.134 169.001 175.785 171.865 168.035L171.867 167.838C171.867 167.738 171.842 167.639 171.794 167.552C171.745 167.464 171.675 167.391 171.59 167.339C171.473 167.275 171.338 167.253 171.207 167.275C171.075 167.298 170.956 167.364 170.867 167.464L170.45 167.947C168.944 169.697 167.523 171.354 166.019 172.869C164.722 174.282 163.38 175.583 162.084 176.847L161.347 177.563C158.169 180.638 155.127 183.378 152.566 185.643C150.317 187.639 148.154 189.533 146.056 191.362C142.919 194.147 139.953 196.709 137.023 199.346C135.134 201.008 133.244 202.679 131.354 204.378C128.311 207.089 125.173 209.95 121.811 212.808C121.376 213.17 120.942 213.551 120.498 213.931C119.553 214.739 118.608 215.583 117.57 216.353L116.361 217.327C115.276 218.198 114.152 219.107 112.945 219.922L110.463 221.775C109.944 222.118 109.416 222.451 108.888 222.784L107.766 223.477C106.379 224.393 104.931 225.213 103.432 225.933L102.688 226.32L102.588 226.01L101.548 222.701L99.4862 216.12C98.8304 213.92 98.0523 211.757 97.4997 209.539L96.428 205.573C96.5115 205.637 96.6126 205.674 96.7177 205.679C100.242 205.913 103.782 205.654 107.235 204.908L107.366 204.909C109.087 204.575 110.787 204.142 112.459 203.613L113.023 203.431C114.527 202.947 116.088 202.454 117.556 201.82C124.319 199.076 130.713 195.497 136.588 191.166C142.542 186.834 148.072 181.947 153.105 176.572C158.261 171.119 162.823 165.134 166.715 158.717C166.769 158.63 166.799 158.53 166.802 158.427C166.806 158.317 166.779 158.208 166.723 158.113C166.667 158.017 166.585 157.941 166.486 157.891C166.388 157.842 166.277 157.822 166.167 157.834C166.057 157.846 165.953 157.89 165.868 157.96C159.8 162.445 154.266 165.912 149.392 168.964C148.28 169.657 147.196 170.332 146.14 171.008C141.323 174.013 135.666 177.601 130.204 181.454C125.488 184.685 120.957 188.142 116.125 191.804L115.181 192.527C112.435 194.593 109.707 196.623 106.689 198.65C106.256 198.927 105.812 199.224 105.369 199.52C104.256 200.269 103.106 201.038 101.89 201.702C101.57 201.877 101.25 202.062 100.948 202.266C100.411 202.58 99.864 202.913 99.3084 203.189L96.4838 204.552C96.3619 204.609 96.2646 204.708 96.2095 204.831L93.93 196.373C93.3112 194.22 92.8332 192.05 92.3269 189.908L91.9834 188.443C92.0454 188.485 92.1153 188.514 92.1889 188.529C98.9201 189.675 106.758 188.6 114.267 185.496C120.703 182.862 127.058 178.792 133.69 173.055C136.259 170.846 138.887 168.413 141.971 165.271C145.055 162.129 147.648 159.395 149.799 156.807C155.767 149.743 159.829 143.018 162.166 136.288C162.176 136.229 162.176 136.169 162.168 136.11C162.169 135.994 162.134 135.88 162.068 135.784C162.003 135.687 161.909 135.613 161.801 135.572C161.692 135.53 161.573 135.522 161.46 135.55C161.347 135.578 161.245 135.639 161.168 135.726C158.266 139.076 155.06 142.149 151.59 144.906C148.512 147.373 145.644 149.448 142.483 151.708L142.153 151.94C139.323 153.95 136.69 155.849 134.114 157.814C131.716 159.668 129.233 161.653 126.513 163.936C124.775 165.392 123.065 166.859 121.355 168.335C118.332 170.943 115.196 173.635 111.816 176.296C109.043 178.499 106.135 180.528 103.109 182.37C99.6373 184.5 95.9241 186.208 92.0482 187.459C91.9172 187.501 91.8063 187.59 91.7366 187.709L90.7511 183.538C90.0631 180.719 89.4399 177.995 88.8544 175.261C88.9191 175.276 88.9862 175.276 89.0513 175.263C96.6613 174.462 104.066 172.304 110.915 168.891C117.962 165.41 124.509 160.999 130.381 155.775C136.306 150.52 141.713 144.709 146.528 138.421C151.354 132.147 155.834 125.613 159.946 118.849C160.017 118.736 160.046 118.602 160.028 118.47C160.01 118.338 159.947 118.216 159.849 118.126C159.748 118.04 159.619 117.992 159.485 117.991C159.351 117.989 159.222 118.035 159.118 118.119C152.266 123.319 145.696 128.419 139.031 133.695C133.045 138.462 128.011 142.6 123.213 146.684L108.097 159.762C102.013 165.074 95.5229 169.901 88.6855 174.2L88.6193 174.265C87.5653 169.343 86.6322 164.525 85.6602 159.876C93.2383 159.807 100.686 157.893 107.358 154.299C114.297 150.609 120.537 145.732 125.794 139.89C131.122 134.043 135.684 127.542 139.37 120.544C143.158 113.533 146.153 106.122 148.301 98.4484L148.303 98.3078C148.304 98.1994 148.275 98.0928 148.217 98.0008C148.16 97.9088 148.077 97.8353 147.979 97.7893C147.859 97.7296 147.721 97.7141 147.591 97.7455C147.46 97.7769 147.345 97.8533 147.265 97.9612C142.343 104.526 137.09 110.835 131.527 116.866L131.328 117.089C126.727 122.159 122.535 126.623 118.475 130.938L116.44 133.095C112.655 137.075 108.775 141.185 104.323 145.328C98.7786 150.724 92.4561 155.258 85.5667 158.778C84.7679 154.692 84.0431 150.72 83.3453 146.879C90.3335 145.688 97.0086 143.096 102.97 139.259C109.407 135.12 115.148 129.986 119.979 124.05C124.851 118.075 129.048 111.581 132.496 104.686C135.905 97.8328 138.897 90.7798 141.456 83.5656C141.465 83.5003 141.466 83.4341 141.458 83.3687C141.458 83.2699 141.433 83.1726 141.385 83.0866C141.336 83.0006 141.266 82.9289 141.181 82.8787C141.067 82.8093 140.932 82.782 140.8 82.8014C140.668 82.8208 140.547 82.8857 140.458 82.9849C134.398 89.7295 129.256 95.6008 124.729 100.774L124.246 101.332C119.312 106.971 115.239 111.689 111.45 116.222L108.807 119.34C105.737 122.951 102.564 126.692 99.0232 130.58C94.2192 136.001 88.8663 140.909 83.0504 145.227L81.5854 136.898L80.8464 132.41C80.9478 132.421 81.0502 132.399 81.1376 132.346C87.7163 128.578 93.6488 123.781 98.7099 118.136C103.874 112.418 108.422 106.172 112.28 99.5029C118.38 89.1678 123.24 77.9874 127.938 67.1712C129.316 63.9955 130.694 60.8198 132.109 57.6444C132.143 57.5745 132.16 57.4975 132.158 57.4198C132.156 57.3125 132.123 57.2081 132.064 57.1189C132.004 57.0296 131.921 56.9592 131.822 56.916C131.724 56.8728 131.616 56.8585 131.51 56.8749C131.404 56.8912 131.305 56.9376 131.224 57.0084C125.194 62.9461 119.576 69.2874 114.407 75.9883C110.148 81.4468 106.204 87.1441 102.595 93.0523C99.0566 98.825 95.8257 104.844 92.6903 110.658L92.1181 111.769C88.6255 118.423 84.7919 124.892 80.6324 131.151L78.4956 118.147C78.1214 115.912 77.7835 113.8 77.4821 111.81C96.2112 95.0499 110.486 71.9225 121.125 41.1034C121.134 41.0444 121.135 40.9843 121.126 40.9252C121.124 40.8102 121.088 40.6984 121.022 40.6039C120.957 40.5094 120.865 40.4366 120.758 40.3945C120.651 40.3524 120.534 40.343 120.421 40.3675C120.309 40.392 120.206 40.4493 120.126 40.5321C108.274 53.5548 100.156 63.141 93.7083 73.5106C87.261 83.8802 82.4756 95.0612 77.1374 109.406C76.8273 107.341 76.5534 105.417 76.25 103.661L75.0802 95.8874C84.0674 85.5459 91.3051 73.8058 96.5072 61.1308C101.923 48.0012 105.915 34.3283 108.414 20.347L108.415 20.2813C108.413 20.1663 108.379 20.0542 108.314 19.9587C108.25 19.8632 108.16 19.7885 108.054 19.7438C107.932 19.6969 107.799 19.6921 107.674 19.7301C107.55 19.7681 107.442 19.8467 107.367 19.9534C97.5457 34.5221 90.9089 45.1244 86.0308 56.1734C81.5172 66.288 78.5389 76.6597 74.6013 92.7517L74.3794 91.3153L74.3804 91.2028C74.7936 86.831 75.0198 82.3951 75.0591 77.8951C75.2612 54.7387 70.56 29.4018 60.8143 0.889369C60.7714 0.76752 60.6886 0.663752 60.5793 0.594955C60.47 0.526158 60.3407 0.496367 60.2123 0.510464C60.0839 0.52456 59.9641 0.581716 59.8723 0.672591C59.7805 0.763467 59.7222 0.882714 59.7069 1.01095L59.7539 0.99262Z"/>
</mask>
<path d="M59.7539 0.99262C56.0197 31.3751 57.0998 52.6488 73.3292 91.3342L73.394 91.4286L73.9689 95.3808L73.9108 95.5959C73.8881 95.6932 73.8914 95.7947 73.9201 95.8904C73.9489 95.9861 74.0022 96.0725 74.0748 96.1412L75.1891 103.82L75.5521 106.28C74.0961 104.439 72.7718 102.562 71.4845 100.731L69.4653 97.9011C68.0577 95.8917 66.6038 93.8164 65.0748 91.7591C61.1328 86.4899 56.878 81.4621 52.3332 76.7029C44.0649 67.9769 35.1616 60.0423 25.7465 51.6532L23.0485 49.2482C22.9487 49.1651 22.8232 49.119 22.6933 49.1179C22.5635 49.1168 22.4372 49.1606 22.336 49.242C22.2308 49.319 22.1545 49.429 22.1194 49.5546C22.0843 49.6801 22.0924 49.8138 22.1424 49.9341C25.1107 56.773 28.5784 63.3841 32.5176 69.7138C35.7687 74.9027 39.4789 79.7893 43.6036 84.3149C47.7012 88.765 52.1661 92.8624 56.9509 96.5636C58.2174 97.5591 59.5214 98.5456 60.9 99.5702C62.2787 100.595 63.863 101.696 65.3172 102.656C68.6468 104.885 72.1769 106.8 75.862 108.373C76.2953 111.359 76.7446 114.672 77.36 118.287L78.9154 128.061C74.8262 122.532 70.2285 117.397 65.1825 112.724C62.821 110.435 60.5354 108.043 58.1948 105.519C55.6308 102.796 52.974 99.9698 50.0823 97.2069C40.459 87.9627 28.5506 79.4956 12.624 70.5715C12.5084 70.506 12.3732 70.4835 12.2426 70.5081C12.1119 70.5327 11.9942 70.6028 11.9103 70.7059C11.823 70.8056 11.7743 70.9332 11.7732 71.0657C11.772 71.1982 11.8184 71.3267 11.904 71.4278C24.7977 87.3104 33.1254 96.7589 41.6122 105.149C46.5673 109.984 51.1798 114.327 57.4353 118.413C58.2465 118.927 59.0766 119.431 59.9441 119.935L67.6343 123.997C68.7262 124.578 69.8369 125.16 70.9755 125.76C73.5514 127.105 76.2113 128.506 78.9919 130.04C79.0683 130.085 79.1557 130.109 79.2445 130.108L80.3556 137.084C80.8387 139.741 81.3209 142.493 81.8119 145.319C72.3627 136.612 62.3063 128.588 51.719 121.308C40.2292 113.362 28.1516 106.301 15.5909 100.187C15.5297 100.143 15.4603 100.11 15.3866 100.092C15.3129 100.074 15.2364 100.071 15.1614 100.082C15.0865 100.094 15.0145 100.12 14.9496 100.159C14.8848 100.199 14.8283 100.25 14.7835 100.312C14.7386 100.373 14.7062 100.442 14.6882 100.516C14.6702 100.59 14.6668 100.666 14.6784 100.741C14.6899 100.816 14.7161 100.888 14.7554 100.953C14.7948 101.018 14.8465 101.074 14.9077 101.119C26.2026 114.344 34.7022 123.419 44.7093 130.585C55.0521 137.951 66.6325 143.171 82.1962 147.488C82.8661 151.301 83.5724 155.245 84.3526 159.302C84.9729 162.354 85.5833 165.472 86.2208 168.694C75.5892 158.963 63.2407 150.436 48.4581 142.581C42.4015 139.34 35.5673 136.027 26.9849 132.136C24.9493 131.181 22.9037 130.301 20.8583 129.392C15.6655 127.087 10.3047 124.696 5.17097 122.064C5.05137 122.005 4.91516 121.989 4.78517 122.019C4.65518 122.048 4.53932 122.122 4.45699 122.226C4.3707 122.328 4.32282 122.457 4.32165 122.591C4.32049 122.724 4.36611 122.854 4.45061 122.958C7.5848 126.436 10.9384 129.709 14.4909 132.759C17.4311 135.344 20.5872 137.903 24.1359 140.587C29.9388 144.969 36.0416 148.938 42.3994 152.466C55.1358 159.516 68.6498 164.49 86.3946 170.27C86.4347 170.28 86.4763 170.28 86.5165 170.272C87.4154 174.705 88.3133 179.241 89.4641 183.827L90.0694 186.438C77.1462 177.278 63.458 169.247 49.1567 162.435C33.9433 155.191 17.9871 149.622 1.56955 145.828C1.43946 145.797 1.30261 145.814 1.18353 145.875C1.06445 145.935 0.970923 146.037 0.919722 146.16C0.862972 146.284 0.853924 146.424 0.894311 146.554C0.934698 146.685 1.02168 146.795 1.13859 146.865C5.16661 149.422 8.87711 151.836 12.3263 154.107C16.4377 156.787 20.3253 159.315 24.018 161.616C30.3176 165.621 36.8232 169.293 43.5081 172.615C50.2039 175.893 57.1146 178.713 64.1924 181.056C72.7583 183.89 81.4855 186.211 90.3277 188.006L90.3839 188.007L90.8986 190.271C91.3955 192.422 91.8734 194.602 92.4827 196.763L95.1152 206.668C82.7483 198.334 69.6534 191.134 55.9903 185.156C40.5338 178.233 24.3448 172.514 11.9305 168.308C11.8029 168.266 11.6648 168.27 11.5396 168.318C11.4145 168.367 11.3099 168.457 11.2437 168.574C11.1782 168.69 11.1557 168.825 11.1803 168.955C11.2049 169.086 11.275 169.204 11.3782 169.288C26.5605 181.843 38.3057 189.662 50.6499 195.461C62.9941 201.259 76.5089 205.062 95.5417 208.294L95.9775 209.92C96.5207 212.137 97.28 214.31 97.9359 216.5L99.9782 223.137L100.625 225.252C77.5481 208.465 48.5128 196.473 11.9582 188.766C11.8261 188.737 11.6878 188.756 11.5681 188.819C11.4484 188.882 11.3549 188.985 11.3043 189.111C11.2538 189.236 11.2493 189.376 11.2918 189.504C11.3344 189.633 11.4211 189.742 11.5366 189.813C29.1433 200.673 41.9144 208.042 55.086 213.566C68.7902 219.312 82.9794 223.186 101.337 227.453L101.547 228.139L102.133 229.785L104.485 236.368L106.828 242.952C107.578 245.04 108.489 247.073 109.315 249.133C95.5983 238.926 80.6005 230.564 64.706 224.264C60.3708 222.529 56.0343 220.935 51.8181 219.529C46.536 217.786 42.4025 216.569 38.417 215.587C27.5552 212.895 18.1204 212.138 9.56919 213.272C9.43382 213.293 9.30977 213.36 9.21824 213.462C9.12671 213.563 9.07339 213.694 9.0674 213.831C9.07442 213.965 9.12414 214.093 9.20928 214.196C9.29442 214.3 9.4105 214.374 9.54054 214.407C14.7901 215.367 19.9289 216.857 24.878 218.853C29.447 220.665 33.5833 222.623 37.4207 224.466C44.4879 227.931 52.0224 231.569 59.5896 234.692C73.602 240.562 87.6838 244.932 110.233 251.373L112.069 255.824L113.391 259.023C113.86 260.077 114.367 261.103 114.845 262.148L117.138 266.941C111.533 264.641 106.193 261.979 101.021 259.393C99.1543 258.458 97.2872 257.529 95.4201 256.606C89.2772 253.581 81.1169 249.675 72.3895 246.289C64.2148 243.036 55.7644 240.524 47.1403 238.784C37.1066 236.821 28.2127 236.396 19.962 237.468C19.8282 237.488 19.7053 237.554 19.614 237.654C19.5227 237.754 19.4684 237.882 19.4603 238.017C19.45 238.152 19.4895 238.286 19.5715 238.394C19.6535 238.502 19.7723 238.576 19.9053 238.602L24.5839 239.665C24.9863 239.753 25.3887 239.841 25.7535 239.938L31.1394 241.597C31.8502 241.8 32.5511 242.069 33.2425 242.338L34.4575 242.78L37.6538 243.951C38.2612 244.191 38.8683 244.449 39.4662 244.698L40.6993 245.215L43.6515 246.423C44.212 246.662 44.7723 246.911 45.3233 247.168C45.7155 247.341 46.0985 247.513 46.4814 247.676L52.272 250.248C57.4928 252.572 62.4241 254.762 67.4598 256.803C74.6107 259.712 81.9352 262.174 89.391 264.176C94.0026 265.398 98.2512 266.316 102.436 267.009C104.749 267.376 107.118 267.753 109.666 267.944C110.088 267.948 110.509 268.008 110.921 268.058C111.765 268.141 112.636 268.223 113.536 268.222L117.53 268.257C117.608 268.258 117.686 268.24 117.755 268.202L120.701 274.472L126.983 286.2L127.998 288.084C121.716 284.879 115.238 281.616 108.56 278.623C101.104 275.229 93.4264 272.343 85.5807 269.984C77.3931 267.507 68.9589 265.934 60.4289 265.292C51.6343 264.592 42.7843 265.322 34.2234 267.455C34.0936 267.488 33.9798 267.566 33.9017 267.675C33.8236 267.784 33.7863 267.917 33.7963 268.051C33.8094 268.185 33.8682 268.311 33.9629 268.408C34.0576 268.504 34.1825 268.565 34.3168 268.58C44.7999 269.535 53.1239 271.876 60.7544 274.184C64.3637 275.303 67.7855 276.42 71.0389 277.499C74.6476 278.683 78.06 279.801 81.5479 280.862C89.1125 283.197 95.9038 284.982 102.932 286.459C111.574 288.314 120.335 289.556 129.152 290.175L130.122 291.797L133.403 297.244L135.475 300.516C107.802 290.364 75.6689 285.208 34.3577 284.304C34.2209 284.301 34.0877 284.347 33.982 284.434C33.8763 284.521 33.8052 284.642 33.7816 284.777C33.7573 284.91 33.7812 285.048 33.8488 285.165C33.9165 285.283 34.0236 285.372 34.1511 285.418C56.0862 293.419 70.1426 297.471 84.3081 299.779C98.7262 302.136 113.675 302.735 135.904 301.851C136.004 301.845 136.101 301.814 136.186 301.76L136.694 302.589C137.785 304.324 138.943 305.984 140.044 307.663L146.522 317.348L148.987 320.66C136.207 315.07 122.568 311.695 108.656 310.68C93.3684 309.547 77.998 310.53 62.9794 313.6C62.8494 313.623 62.732 313.693 62.6486 313.795C62.5651 313.898 62.5211 314.026 62.5245 314.159C62.5237 314.291 62.5698 314.42 62.6547 314.522C62.7396 314.624 62.8578 314.693 62.9884 314.716C66.2177 315.335 69.2597 315.924 72.1612 316.493C85.789 319.171 96.5533 321.215 107.158 322.171C119.608 323.423 132.267 323.187 149.775 322.852L150.628 322.859L153.028 326.134L156.067 330.267L157.54 332.258L159.043 334.146L164.691 341.209C166.472 343.427 168.113 345.523 169.671 347.412L174.052 352.522L182.312 362.205L184.201 360.609L175.847 350.954L171.438 345.871C169.879 343.982 168.247 341.924 166.466 339.733L160.827 332.737L159.315 330.848L157.842 328.876L154.802 324.78L148.315 316.079L146.223 312.976C149.393 308.569 152.543 304.359 155.823 300.15C159.104 295.94 162.383 291.994 165.86 287.833L166.532 287.061C170.457 282.469 174.088 277.635 177.403 272.586C180.999 267.159 183.639 261.157 185.209 254.84L185.21 254.718C185.211 254.609 185.182 254.503 185.124 254.411C185.067 254.319 184.984 254.245 184.886 254.199C184.769 254.144 184.636 254.129 184.51 254.159C184.384 254.189 184.271 254.26 184.191 254.362C181.924 257.154 179.437 259.76 176.753 262.154C174.75 263.956 172.842 265.561 170.991 267.11L169.773 268.141C165.496 271.562 161.503 275.325 157.833 279.39C150.342 287.96 146.005 298.208 144.612 310.637L141.835 306.497C140.734 304.837 139.567 303.196 138.476 301.47L135.222 296.163L134.233 294.542C145.456 287.774 155.435 279.13 163.737 268.988C172.492 258.313 179.413 246.258 184.215 233.314L184.217 233.117C184.22 233.019 184.196 232.922 184.149 232.836C184.102 232.75 184.033 232.678 183.949 232.627C183.838 232.558 183.707 232.529 183.577 232.545C183.447 232.561 183.327 232.621 183.236 232.714C179.196 236.842 175.433 240.466 172.124 243.662C170.479 245.251 168.909 246.766 167.396 248.234C162.223 253.298 158.419 257.316 155.094 261.253C148.264 269.275 142.166 278.307 133.475 293.335L131.931 290.809L130.258 288.066C129.713 287.124 129.224 286.182 128.698 285.24L125.745 279.804C145.683 268.474 163.364 250.486 179.751 224.818C179.82 224.707 179.85 224.577 179.836 224.448C179.821 224.318 179.764 224.198 179.673 224.105C179.581 224.012 179.46 223.954 179.33 223.941C179.2 223.928 179.07 223.96 178.961 224.033C150.44 242.367 141.057 251.707 124.906 278.25L122.396 273.549L118.428 265.255C125.295 261.593 131.908 257.476 138.225 252.93C144.883 248.175 151.091 242.819 156.769 236.928C162.618 230.798 167.742 224.016 172.04 216.715C176.301 209.421 180.082 201.856 183.358 194.069C183.372 193.994 183.372 193.918 183.359 193.844C183.361 193.748 183.338 193.654 183.292 193.57C183.247 193.486 183.181 193.415 183.101 193.363C182.988 193.289 182.853 193.257 182.719 193.273C182.585 193.289 182.461 193.352 182.369 193.451C174.893 201.439 169.186 207.493 163.916 212.979C160.065 216.986 156.489 220.621 153.036 224.135L148.836 228.42C144.636 232.725 139.593 237.959 134.081 244.23C129.006 249.99 123.661 256.459 117.755 263.974L116.493 261.347C116.014 260.321 115.508 259.294 115.029 258.259L113.707 255.088L111.383 249.517C125.697 244.203 138.707 235.886 149.54 225.126C155.232 219.529 160.275 213.308 164.572 206.581C169.04 199.699 172.432 192.175 174.63 184.27C174.639 184.223 174.64 184.176 174.631 184.129C174.631 184.009 174.594 183.892 174.524 183.794C174.454 183.697 174.356 183.624 174.242 183.585C174.128 183.547 174.005 183.545 173.89 183.581C173.776 183.616 173.675 183.687 173.603 183.783L171.411 186.736C170.984 187.332 170.463 187.909 170.027 188.458L169.232 189.389C168.141 190.748 166.987 191.994 165.879 193.203L164.932 194.255C164.118 195.185 163.258 196.012 162.435 196.839C161.848 197.425 161.281 198.001 160.751 198.559L156.685 202.499C154.397 204.664 152.195 206.707 150.068 208.695C147.232 211.333 144.519 213.831 141.853 216.405C137.494 220.586 132.963 225.169 127.664 230.804L124.73 233.91C120.727 238.151 116.213 242.94 110.982 248.267C110.155 246.272 109.272 244.304 108.531 242.273L106.169 235.745L103.798 229.162L103.248 227.647C109.869 227.527 117.255 225.566 124.722 221.909C131.901 218.316 138.532 213.721 144.418 208.261C150.42 202.76 155.786 196.601 160.414 189.902C165.152 183.134 169.001 175.785 171.865 168.035L171.867 167.838C171.867 167.738 171.842 167.639 171.794 167.552C171.745 167.464 171.675 167.391 171.59 167.339C171.473 167.275 171.338 167.253 171.207 167.275C171.075 167.298 170.956 167.364 170.867 167.464L170.45 167.947C168.944 169.697 167.523 171.354 166.019 172.869C164.722 174.282 163.38 175.583 162.084 176.847L161.347 177.563C158.169 180.638 155.127 183.378 152.566 185.643C150.317 187.639 148.154 189.533 146.056 191.362C142.919 194.147 139.953 196.709 137.023 199.346C135.134 201.008 133.244 202.679 131.354 204.378C128.311 207.089 125.173 209.95 121.811 212.808C121.376 213.17 120.942 213.551 120.498 213.931C119.553 214.739 118.608 215.583 117.57 216.353L116.361 217.327C115.276 218.198 114.152 219.107 112.945 219.922L110.463 221.775C109.944 222.118 109.416 222.451 108.888 222.784L107.766 223.477C106.379 224.393 104.931 225.213 103.432 225.933L102.688 226.32L102.588 226.01L101.548 222.701L99.4862 216.12C98.8304 213.92 98.0523 211.757 97.4997 209.539L96.428 205.573C96.5115 205.637 96.6126 205.674 96.7177 205.679C100.242 205.913 103.782 205.654 107.235 204.908L107.366 204.909C109.087 204.575 110.787 204.142 112.459 203.613L113.023 203.431C114.527 202.947 116.088 202.454 117.556 201.82C124.319 199.076 130.713 195.497 136.588 191.166C142.542 186.834 148.072 181.947 153.105 176.572C158.261 171.119 162.823 165.134 166.715 158.717C166.769 158.63 166.799 158.53 166.802 158.427C166.806 158.317 166.779 158.208 166.723 158.113C166.667 158.017 166.585 157.941 166.486 157.891C166.388 157.842 166.277 157.822 166.167 157.834C166.057 157.846 165.953 157.89 165.868 157.96C159.8 162.445 154.266 165.912 149.392 168.964C148.28 169.657 147.196 170.332 146.14 171.008C141.323 174.013 135.666 177.601 130.204 181.454C125.488 184.685 120.957 188.142 116.125 191.804L115.181 192.527C112.435 194.593 109.707 196.623 106.689 198.65C106.256 198.927 105.812 199.224 105.369 199.52C104.256 200.269 103.106 201.038 101.89 201.702C101.57 201.877 101.25 202.062 100.948 202.266C100.411 202.58 99.864 202.913 99.3084 203.189L96.4838 204.552C96.3619 204.609 96.2646 204.708 96.2095 204.831L93.93 196.373C93.3112 194.22 92.8332 192.05 92.3269 189.908L91.9834 188.443C92.0454 188.485 92.1153 188.514 92.1889 188.529C98.9201 189.675 106.758 188.6 114.267 185.496C120.703 182.862 127.058 178.792 133.69 173.055C136.259 170.846 138.887 168.413 141.971 165.271C145.055 162.129 147.648 159.395 149.799 156.807C155.767 149.743 159.829 143.018 162.166 136.288C162.176 136.229 162.176 136.169 162.168 136.11C162.169 135.994 162.134 135.88 162.068 135.784C162.003 135.687 161.909 135.613 161.801 135.572C161.692 135.53 161.573 135.522 161.46 135.55C161.347 135.578 161.245 135.639 161.168 135.726C158.266 139.076 155.06 142.149 151.59 144.906C148.512 147.373 145.644 149.448 142.483 151.708L142.153 151.94C139.323 153.95 136.69 155.849 134.114 157.814C131.716 159.668 129.233 161.653 126.513 163.936C124.775 165.392 123.065 166.859 121.355 168.335C118.332 170.943 115.196 173.635 111.816 176.296C109.043 178.499 106.135 180.528 103.109 182.37C99.6373 184.5 95.9241 186.208 92.0482 187.459C91.9172 187.501 91.8063 187.59 91.7366 187.709L90.7511 183.538C90.0631 180.719 89.4399 177.995 88.8544 175.261C88.9191 175.276 88.9862 175.276 89.0513 175.263C96.6613 174.462 104.066 172.304 110.915 168.891C117.962 165.41 124.509 160.999 130.381 155.775C136.306 150.52 141.713 144.709 146.528 138.421C151.354 132.147 155.834 125.613 159.946 118.849C160.017 118.736 160.046 118.602 160.028 118.47C160.01 118.338 159.947 118.216 159.849 118.126C159.748 118.04 159.619 117.992 159.485 117.991C159.351 117.989 159.222 118.035 159.118 118.119C152.266 123.319 145.696 128.419 139.031 133.695C133.045 138.462 128.011 142.6 123.213 146.684L108.097 159.762C102.013 165.074 95.5229 169.901 88.6855 174.2L88.6193 174.265C87.5653 169.343 86.6322 164.525 85.6602 159.876C93.2383 159.807 100.686 157.893 107.358 154.299C114.297 150.609 120.537 145.732 125.794 139.89C131.122 134.043 135.684 127.542 139.37 120.544C143.158 113.533 146.153 106.122 148.301 98.4484L148.303 98.3078C148.304 98.1994 148.275 98.0928 148.217 98.0008C148.16 97.9088 148.077 97.8353 147.979 97.7893C147.859 97.7296 147.721 97.7141 147.591 97.7455C147.46 97.7769 147.345 97.8533 147.265 97.9612C142.343 104.526 137.09 110.835 131.527 116.866L131.328 117.089C126.727 122.159 122.535 126.623 118.475 130.938L116.44 133.095C112.655 137.075 108.775 141.185 104.323 145.328C98.7786 150.724 92.4561 155.258 85.5667 158.778C84.7679 154.692 84.0431 150.72 83.3453 146.879C90.3335 145.688 97.0086 143.096 102.97 139.259C109.407 135.12 115.148 129.986 119.979 124.05C124.851 118.075 129.048 111.581 132.496 104.686C135.905 97.8328 138.897 90.7798 141.456 83.5656C141.465 83.5003 141.466 83.4341 141.458 83.3687C141.458 83.2699 141.433 83.1726 141.385 83.0866C141.336 83.0006 141.266 82.9289 141.181 82.8787C141.067 82.8093 140.932 82.782 140.8 82.8014C140.668 82.8208 140.547 82.8857 140.458 82.9849C134.398 89.7295 129.256 95.6008 124.729 100.774L124.246 101.332C119.312 106.971 115.239 111.689 111.45 116.222L108.807 119.34C105.737 122.951 102.564 126.692 99.0232 130.58C94.2192 136.001 88.8663 140.909 83.0504 145.227L81.5854 136.898L80.8464 132.41C80.9478 132.421 81.0502 132.399 81.1376 132.346C87.7163 128.578 93.6488 123.781 98.7099 118.136C103.874 112.418 108.422 106.172 112.28 99.5029C118.38 89.1678 123.24 77.9874 127.938 67.1712C129.316 63.9955 130.694 60.8198 132.109 57.6444C132.143 57.5745 132.16 57.4975 132.158 57.4198C132.156 57.3125 132.123 57.2081 132.064 57.1189C132.004 57.0296 131.921 56.9592 131.822 56.916C131.724 56.8728 131.616 56.8585 131.51 56.8749C131.404 56.8912 131.305 56.9376 131.224 57.0084C125.194 62.9461 119.576 69.2874 114.407 75.9883C110.148 81.4468 106.204 87.1441 102.595 93.0523C99.0566 98.825 95.8257 104.844 92.6903 110.658L92.1181 111.769C88.6255 118.423 84.7919 124.892 80.6324 131.151L78.4956 118.147C78.1214 115.912 77.7835 113.8 77.4821 111.81C96.2112 95.0499 110.486 71.9225 121.125 41.1034C121.134 41.0444 121.135 40.9843 121.126 40.9252C121.124 40.8102 121.088 40.6984 121.022 40.6039C120.957 40.5094 120.865 40.4366 120.758 40.3945C120.651 40.3524 120.534 40.343 120.421 40.3675C120.309 40.392 120.206 40.4493 120.126 40.5321C108.274 53.5548 100.156 63.141 93.7083 73.5106C87.261 83.8802 82.4756 95.0612 77.1374 109.406C76.8273 107.341 76.5534 105.417 76.25 103.661L75.0802 95.8874C84.0674 85.5459 91.3051 73.8058 96.5072 61.1308C101.923 48.0012 105.915 34.3283 108.414 20.347L108.415 20.2813C108.413 20.1663 108.379 20.0542 108.314 19.9587C108.25 19.8632 108.16 19.7885 108.054 19.7438C107.932 19.6969 107.799 19.6921 107.674 19.7301C107.55 19.7681 107.442 19.8467 107.367 19.9534C97.5457 34.5221 90.9089 45.1244 86.0308 56.1734C81.5172 66.288 78.5389 76.6597 74.6013 92.7517L74.3794 91.3153L74.3804 91.2028C74.7936 86.831 75.0198 82.3951 75.0591 77.8951C75.2612 54.7387 70.56 29.4018 60.8143 0.889369C60.7714 0.76752 60.6886 0.663752 60.5793 0.594955C60.47 0.526158 60.3407 0.496367 60.2123 0.510464C60.0839 0.52456 59.9641 0.581716 59.8723 0.672591C59.7805 0.763467 59.7222 0.882714 59.7069 1.01095L59.7539 0.99262Z" stroke="white" stroke-opacity="0.53" stroke-width="2" mask="url(#path-1-inside-1_2_1094)"/>
</svg>
