<svg width="47" height="47" viewBox="0 0 47 47" fill="none" xmlns="http://www.w3.org/2000/svg">
<path d="M31.9 15H15.1C13.945 15 13 15.9562 13 17.125V29.875C13 31.0438 13.945 32 15.1 32H31.9C33.055 32 34 31.0438 34 29.875V17.125C34 15.9562 33.055 15 31.9 15ZM31.48 19.5156L24.613 23.8613C23.9305 24.2969 23.0695 24.2969 22.387 23.8613L15.52 19.5156C15.2575 19.3456 15.1 19.0588 15.1 18.7506C15.1 18.0388 15.8665 17.6137 16.465 17.9856L23.5 22.4375L30.535 17.9856C31.1335 17.6137 31.9 18.0388 31.9 18.7506C31.9 19.0588 31.7425 19.3456 31.48 19.5156Z" fill="white"/>
<circle cx="23.5" cy="23.5" r="23" stroke="white"/>
</svg>
