<svg width="252" height="492" viewBox="0 0 252 492" fill="none" xmlns="http://www.w3.org/2000/svg">
<mask id="path-1-inside-1_2_1081" fill="white">
<path d="M171.153 1.34669C176.218 42.5549 174.753 71.4087 152.741 123.878L152.653 124.006L151.873 129.367L151.952 129.659C151.983 129.791 151.979 129.928 151.94 130.058C151.901 130.188 151.828 130.305 151.73 130.398L150.218 140.813L149.726 144.15C151.701 141.653 153.497 139.106 155.243 136.624L157.982 132.785C159.891 130.06 161.863 127.245 163.937 124.455C169.283 117.308 175.054 110.489 181.218 104.034C192.433 92.1986 204.508 81.4368 217.278 70.0585L220.938 66.7965C221.073 66.6838 221.243 66.6213 221.419 66.6198C221.595 66.6183 221.767 66.6777 221.904 66.7881C222.047 66.8925 222.15 67.0418 222.198 67.212C222.245 67.3823 222.234 67.5636 222.166 67.7268C218.141 77.0026 213.437 85.9693 208.095 94.5543C203.685 101.592 198.653 108.22 193.058 114.358C187.501 120.394 181.445 125.951 174.955 130.971C173.237 132.321 171.469 133.659 169.599 135.049C167.729 136.439 165.58 137.933 163.608 139.234C159.092 142.258 154.304 144.854 149.306 146.989C148.718 151.038 148.109 155.532 147.274 160.435L145.164 173.692C150.711 166.192 156.947 159.228 163.791 152.89C166.993 149.785 170.093 146.541 173.268 143.117C176.746 139.425 180.349 135.591 184.271 131.844C197.323 119.306 213.475 107.822 235.076 95.7177C235.233 95.6288 235.417 95.5983 235.594 95.6317C235.771 95.6651 235.931 95.7601 236.044 95.9C236.163 96.0351 236.229 96.2083 236.23 96.388C236.232 96.5676 236.169 96.7419 236.053 96.8791C218.565 118.421 207.27 131.236 195.759 142.616C189.039 149.173 182.783 155.064 174.298 160.606C173.198 161.303 172.072 161.987 170.895 162.671L160.465 168.179C158.984 168.968 157.478 169.757 155.933 170.571C152.44 172.395 148.832 174.295 145.061 176.376C144.957 176.437 144.839 176.469 144.718 176.468L143.211 185.929C142.556 189.534 141.902 193.265 141.236 197.099C154.052 185.29 167.692 174.406 182.051 164.532C197.635 153.755 214.016 144.178 231.052 135.886C231.135 135.825 231.23 135.781 231.33 135.757C231.429 135.732 231.533 135.728 231.635 135.744C231.737 135.759 231.834 135.795 231.922 135.848C232.01 135.902 232.087 135.972 232.148 136.055C232.208 136.138 232.252 136.232 232.277 136.332C232.301 136.432 232.306 136.535 232.29 136.637C232.274 136.739 232.239 136.836 232.186 136.924C232.132 137.012 232.062 137.089 231.979 137.15C216.66 155.087 205.131 167.395 191.559 177.114C177.531 187.105 161.824 194.185 140.715 200.041C139.806 205.212 138.848 210.561 137.79 216.064C136.948 220.204 136.121 224.433 135.256 228.803C149.676 215.604 166.424 204.038 186.474 193.385C194.689 188.99 203.958 184.496 215.599 179.219C218.359 177.923 221.134 176.729 223.908 175.497C230.951 172.371 238.222 169.128 245.185 165.558C245.347 165.478 245.532 165.456 245.708 165.496C245.885 165.536 246.042 165.636 246.154 165.778C246.271 165.916 246.336 166.091 246.337 166.272C246.339 166.454 246.277 166.63 246.162 166.77C241.911 171.487 237.363 175.927 232.544 180.063C228.557 183.569 224.276 187.04 219.463 190.681C211.592 196.624 203.315 202.008 194.692 206.793C177.417 216.354 159.088 223.101 135.02 230.941C134.966 230.954 134.909 230.954 134.855 230.942C133.636 236.955 132.418 243.108 130.857 249.327L130.036 252.87C147.564 240.445 166.129 229.553 185.527 220.314C206.161 210.488 227.802 202.936 250.07 197.79C250.246 197.748 250.432 197.77 250.593 197.852C250.755 197.935 250.882 198.072 250.951 198.24C251.028 198.408 251.04 198.598 250.986 198.775C250.931 198.951 250.813 199.101 250.654 199.196C245.191 202.664 240.158 205.938 235.48 209.018C229.904 212.653 224.631 216.082 219.623 219.203C211.078 224.635 202.255 229.615 193.188 234.121C184.106 238.568 174.733 242.392 165.133 245.569C153.515 249.413 141.678 252.561 129.686 254.996L129.609 254.997L128.911 258.068C128.237 260.986 127.589 263.942 126.763 266.874L123.192 280.308C139.966 269.003 157.727 259.238 176.258 251.131C197.222 241.741 219.179 233.983 236.017 228.279C236.19 228.223 236.377 228.228 236.547 228.293C236.717 228.359 236.859 228.481 236.949 228.64C237.037 228.797 237.068 228.98 237.035 229.157C237.001 229.334 236.906 229.494 236.766 229.608C216.174 246.637 200.244 257.242 183.501 265.107C166.759 272.972 148.428 278.129 122.614 282.513L122.023 284.718C121.286 287.726 120.256 290.672 119.367 293.643L116.597 302.645L115.719 305.514C147.019 282.745 186.4 266.48 235.979 256.027C236.159 255.987 236.346 256.013 236.509 256.098C236.671 256.184 236.798 256.324 236.866 256.495C236.935 256.665 236.941 256.854 236.883 257.028C236.826 257.202 236.708 257.351 236.551 257.446C212.671 272.177 195.349 282.171 177.485 289.664C158.897 297.456 139.652 302.711 114.753 308.498L114.469 309.429L113.674 311.661L110.484 320.59L107.306 329.52C106.288 332.352 105.054 335.109 103.933 337.904C122.537 324.059 142.879 312.719 164.437 304.173C170.317 301.82 176.198 299.658 181.917 297.751C189.081 295.387 194.687 293.736 200.093 292.404C214.825 288.753 227.622 287.726 239.22 289.265C239.403 289.293 239.572 289.384 239.696 289.522C239.82 289.66 239.892 289.837 239.9 290.022C239.891 290.204 239.823 290.378 239.708 290.518C239.592 290.659 239.435 290.759 239.259 290.804C232.139 292.106 225.169 294.127 218.456 296.835C212.259 299.292 206.649 301.948 201.444 304.448C191.859 309.148 181.64 314.082 171.376 318.317C152.371 326.278 133.272 332.205 102.688 340.941L100.198 346.978L98.4044 351.317C97.7683 352.747 97.0811 354.139 96.4322 355.556L93.3225 362.056C100.925 358.938 108.168 355.327 115.182 351.819C117.714 350.551 120.246 349.291 122.779 348.04C131.11 343.936 142.178 338.638 154.016 334.046C165.103 329.634 176.564 326.228 188.261 323.866C201.87 321.204 213.933 320.629 225.124 322.082C225.305 322.11 225.472 322.199 225.596 322.334C225.72 322.47 225.793 322.643 225.804 322.827C225.818 323.01 225.765 323.192 225.653 323.338C225.542 323.485 225.381 323.585 225.201 323.62L218.855 325.062C218.309 325.181 217.764 325.3 217.269 325.432L209.964 327.683C209 327.958 208.049 328.323 207.111 328.687L205.463 329.286L201.128 330.875C200.304 331.201 199.481 331.551 198.67 331.889L196.998 332.59L192.993 334.227C192.233 334.552 191.473 334.889 190.726 335.239C190.194 335.473 189.675 335.706 189.155 335.927L181.301 339.416C174.22 342.568 167.532 345.538 160.702 348.307C151.003 352.252 141.069 355.592 130.956 358.307C124.701 359.964 118.939 361.209 113.263 362.149C110.126 362.647 106.913 363.158 103.457 363.417C102.885 363.422 102.313 363.504 101.754 363.572C100.611 363.684 99.4289 363.796 98.2081 363.794L92.7913 363.841C92.6846 363.844 92.5792 363.818 92.4854 363.767L88.4904 372.272L79.9692 388.178L78.5927 390.733C87.113 386.386 95.8996 381.96 104.957 377.901C115.07 373.298 125.483 369.384 136.124 366.184C147.229 362.824 158.669 360.691 170.238 359.821C182.166 358.871 194.17 359.861 205.781 362.753C205.957 362.799 206.111 362.905 206.217 363.053C206.323 363.2 206.374 363.381 206.36 363.562C206.342 363.745 206.263 363.915 206.134 364.046C206.006 364.177 205.836 364.259 205.654 364.28C191.436 365.574 180.146 368.75 169.796 371.88C164.901 373.398 160.26 374.913 155.847 376.376C150.953 377.983 146.325 379.498 141.594 380.939C131.334 384.106 122.123 386.526 112.59 388.529C100.87 391.045 88.986 392.73 77.0279 393.57L75.7118 395.769L71.262 403.158L68.4522 407.595C105.986 393.826 149.568 386.833 205.599 385.607C205.784 385.602 205.965 385.665 206.108 385.783C206.252 385.9 206.348 386.066 206.38 386.248C206.413 386.429 206.381 386.616 206.289 386.775C206.197 386.934 206.052 387.055 205.879 387.117C176.128 397.97 157.063 403.464 137.85 406.595C118.295 409.792 98.0189 410.605 67.8703 409.406C67.7343 409.398 67.6027 409.355 67.4877 409.282L66.7981 410.407C65.3181 412.76 63.7482 415.012 62.2548 417.288L53.4679 430.425L50.1245 434.917C67.459 427.335 85.9572 422.757 104.827 421.38C125.562 419.845 146.409 421.177 166.779 425.341C166.955 425.373 167.114 425.467 167.227 425.606C167.341 425.745 167.4 425.92 167.396 426.099C167.397 426.279 167.334 426.453 167.219 426.591C167.104 426.73 166.944 426.823 166.766 426.854C162.387 427.694 158.261 428.493 154.325 429.265C135.842 432.898 121.242 435.67 106.858 436.966C89.9726 438.664 72.8025 438.344 49.0568 437.89L47.8997 437.9L44.6449 442.341L40.5228 447.947L38.5244 450.647L36.4867 453.208L28.8259 462.787C26.4106 465.797 24.1846 468.639 22.0706 471.201L16.1289 478.132L4.92576 491.264L2.36356 489.1L13.6942 476.004L19.6743 469.111C21.7884 466.549 24.0021 463.757 26.4178 460.786L34.0666 451.296L36.117 448.735L38.1156 446.06L42.2382 440.505L51.0367 428.704L53.8739 424.495C49.5744 418.518 45.3027 412.807 40.853 407.098C36.4033 401.389 31.9566 396.036 27.2404 390.393L26.3284 389.346C21.0054 383.118 16.0808 376.561 11.5839 369.713C6.70679 362.353 3.12613 354.212 0.997195 345.644L0.995753 345.478C0.993353 345.331 1.0335 345.187 1.11137 345.062C1.18925 344.937 1.30152 344.838 1.43468 344.775C1.59358 344.7 1.77348 344.68 1.94484 344.72C2.11619 344.76 2.26881 344.858 2.37764 344.996C5.45208 348.783 8.82537 352.317 12.4651 355.564C15.1823 358.008 17.77 360.185 20.2808 362.287L21.9334 363.684C27.7343 368.325 33.15 373.427 38.1276 378.942C48.2878 390.565 54.1696 404.464 56.0589 421.322L59.8249 415.707C61.3185 413.456 62.9013 411.229 64.3815 408.889L68.7949 401.691L70.1364 399.492C54.9141 390.312 41.3791 378.589 30.1202 364.833C18.2448 350.355 8.85836 334.004 2.34468 316.448L2.34235 316.18C2.33851 316.048 2.3701 315.916 2.43389 315.799C2.49767 315.682 2.59134 315.585 2.70532 315.516C2.85585 315.422 3.034 315.383 3.21005 315.404C3.3861 315.426 3.54944 315.507 3.67283 315.635C9.15164 321.233 14.2557 326.148 18.7443 330.483C20.9758 332.638 23.1047 334.693 25.1567 336.684C32.1726 343.553 37.3322 349.002 41.8423 354.341C51.1058 365.222 59.3768 377.472 71.1648 397.856L73.2586 394.429L75.5278 390.709C76.2669 389.431 76.9298 388.154 77.6434 386.876L81.6484 379.503C54.6061 364.136 30.626 339.739 8.39891 304.924C8.30579 304.775 8.26562 304.598 8.28484 304.422C8.30406 304.247 8.38157 304.083 8.50493 303.957C8.62957 303.831 8.79407 303.753 8.97024 303.735C9.14641 303.717 9.32328 303.761 9.47053 303.86C48.155 328.726 60.8804 341.395 82.7872 377.395L86.1905 371.02L91.5731 359.77C82.2595 354.804 73.2892 349.219 64.7225 343.053C55.691 336.605 47.2716 329.339 39.5706 321.349C31.6378 313.036 24.6878 303.837 18.8577 293.935C13.0782 284.041 7.95071 273.781 3.50787 263.219C3.48862 263.118 3.48772 263.015 3.50521 262.914C3.50355 262.784 3.53484 262.656 3.59614 262.542C3.65743 262.428 3.74671 262.332 3.85558 262.262C4.00848 262.161 4.19199 262.118 4.37369 262.14C4.55539 262.162 4.72357 262.247 4.8485 262.38C14.9891 273.215 22.7288 281.426 29.8769 288.867C35.0999 294.302 39.9498 299.232 44.6329 303.998L50.3298 309.81C56.0269 315.648 62.8667 322.748 70.342 331.254C77.2262 339.065 84.4749 347.84 92.4862 358.032L94.1973 354.469C94.8464 353.078 95.5337 351.686 96.1827 350.281L97.9763 345.98L101.128 338.424C81.7136 331.217 64.0675 319.937 49.3752 305.342C41.6546 297.752 34.8153 289.314 28.9873 280.189C22.9267 270.855 18.3265 260.651 15.3454 249.928C15.3325 249.865 15.332 249.801 15.3438 249.738C15.3432 249.575 15.3939 249.416 15.4887 249.284C15.5835 249.151 15.7174 249.052 15.8717 249C16.026 248.948 16.1928 248.946 16.3483 248.994C16.5039 249.042 16.6404 249.138 16.7385 249.268L19.7109 253.273C20.2902 254.082 20.9965 254.864 21.5879 255.609L22.6671 256.871C24.1456 258.715 25.7118 260.405 27.214 262.045L28.4981 263.471C29.6027 264.733 30.7697 265.855 31.8858 266.977C32.6812 267.771 33.451 268.553 34.1697 269.309L39.6844 274.653C42.7875 277.589 45.7746 280.361 48.6593 283.057C52.5055 286.635 56.1847 290.023 59.8013 293.514C65.7131 299.185 71.8585 305.401 79.0465 313.044L83.0254 317.257C88.4547 323.008 94.5771 329.504 101.672 336.728C102.793 334.023 103.991 331.354 104.997 328.599L108.2 319.746L111.416 310.816L112.161 308.762C103.182 308.599 93.1634 305.94 83.0359 300.979C73.2995 296.106 64.305 289.873 56.3223 282.468C48.1811 275.007 40.9037 266.654 34.6268 257.568C28.1999 248.388 22.98 238.42 19.0954 227.909L19.0931 227.642C19.0921 227.506 19.1262 227.372 19.192 227.254C19.2578 227.135 19.3531 227.036 19.4686 226.964C19.6273 226.878 19.8105 226.848 19.9885 226.878C20.1665 226.909 20.3289 226.999 20.4493 227.134L21.0145 227.79C23.0572 230.163 24.9843 232.41 27.0241 234.465C28.783 236.382 30.6042 238.147 32.3613 239.861L33.3617 240.831C37.6708 245.003 41.7979 248.718 45.2709 251.791C48.3211 254.498 51.2556 257.067 54.1003 259.547C58.3552 263.325 62.3785 266.8 66.3518 270.376C68.9148 272.63 71.4779 274.897 74.0413 277.202C78.1681 280.879 82.4239 284.759 86.9848 288.635C87.574 289.126 88.1635 289.642 88.7657 290.159C90.0469 291.254 91.3285 292.4 92.7364 293.443L94.3757 294.764C95.8484 295.946 97.3724 297.179 99.0098 298.284L102.376 300.798C103.08 301.262 103.796 301.714 104.512 302.165L106.033 303.106C107.915 304.348 109.879 305.461 111.912 306.437L112.921 306.962L113.057 306.542L114.468 302.053L117.264 293.127C118.153 290.144 119.209 287.21 119.958 284.202L121.412 278.823C121.298 278.91 121.161 278.96 121.019 278.966C116.239 279.284 111.437 278.932 106.754 277.921L106.576 277.922C104.242 277.468 101.936 276.881 99.6687 276.164L98.9036 275.917C96.8632 275.26 94.7464 274.592 92.7552 273.732C83.5823 270.01 74.9107 265.156 66.9417 259.283C58.8666 253.406 51.366 246.778 44.5405 239.488C37.547 232.092 31.359 223.974 26.0809 215.271C26.007 215.153 25.9663 215.017 25.963 214.878C25.9565 214.728 25.9934 214.58 26.0693 214.451C26.1451 214.322 26.2567 214.218 26.3906 214.151C26.5245 214.084 26.6749 214.057 26.8237 214.073C26.9725 214.09 27.1133 214.149 27.2292 214.244C35.459 220.327 42.9646 225.03 49.5752 229.169C51.0839 230.109 52.5543 231.025 53.9866 231.941C60.5203 236.016 68.1927 240.884 75.6011 246.109C81.9976 250.491 88.1425 255.181 94.6967 260.147L95.9769 261.127C99.7019 263.931 103.401 266.683 107.494 269.432C108.082 269.809 108.684 270.211 109.285 270.612C110.794 271.629 112.355 272.671 114.003 273.572C114.438 273.81 114.872 274.06 115.281 274.337C116.01 274.763 116.751 275.214 117.505 275.589L121.336 277.438C121.501 277.515 121.633 277.649 121.708 277.816L124.8 266.344C125.639 263.425 126.287 260.481 126.974 257.576L127.44 255.588C127.356 255.645 127.261 255.685 127.161 255.705C118.032 257.26 107.401 255.801 97.2162 251.592C88.4869 248.018 79.8678 242.498 70.8729 234.718C67.3879 231.722 63.8239 228.421 59.6411 224.16C55.4583 219.898 51.9416 216.19 49.0243 212.68C40.9293 203.099 35.4198 193.978 32.25 184.85C32.2371 184.77 32.2364 184.689 32.2479 184.609C32.2467 184.451 32.2937 184.296 32.3826 184.166C32.4715 184.035 32.5982 183.935 32.7456 183.879C32.893 183.822 33.0542 183.812 33.2076 183.849C33.361 183.887 33.4993 183.97 33.604 184.088C37.5395 188.631 41.8884 192.8 46.5945 196.539C50.7693 199.885 54.6597 202.699 58.9465 205.765L59.3943 206.079C63.233 208.805 66.8034 211.381 70.2983 214.046C73.5502 216.561 76.9182 219.253 80.6076 222.349C82.9646 224.325 85.2837 226.314 87.6028 228.316C91.703 231.853 95.9567 235.504 100.541 239.113C104.302 242.102 108.247 244.854 112.35 247.352C117.059 250.24 122.095 252.557 127.352 254.254C127.53 254.311 127.68 254.432 127.775 254.593L129.111 248.936C130.045 245.112 130.89 241.417 131.684 237.71C131.596 237.729 131.505 237.73 131.417 237.712C121.095 236.626 111.052 233.699 101.763 229.069C92.2053 224.349 83.3252 218.366 75.3608 211.28C67.3245 204.153 59.991 196.271 53.461 187.743C46.9142 179.233 40.8384 170.371 35.2609 161.197C35.1652 161.044 35.126 160.862 35.15 160.683C35.174 160.504 35.2596 160.339 35.3922 160.216C35.5305 160.099 35.7054 160.034 35.8865 160.033C36.0677 160.031 36.2437 160.093 36.384 160.208C45.6777 167.261 54.5888 174.177 63.6291 181.334C71.7478 187.799 78.5747 193.411 85.083 198.95L105.584 216.688C113.836 223.893 122.639 230.44 131.913 236.271L132.003 236.359C133.432 229.683 134.698 223.149 136.016 216.842C125.738 216.749 115.637 214.153 106.588 209.279C97.1755 204.274 88.7124 197.66 81.5819 189.735C74.3561 181.805 68.1685 172.988 63.1683 163.496C58.0314 153.987 53.9687 143.936 51.0549 133.528L51.0533 133.337C51.0509 133.19 51.091 133.045 51.1689 132.92C51.2468 132.796 51.359 132.696 51.4922 132.634C51.6553 132.553 51.8417 132.532 52.0188 132.574C52.1959 132.617 52.3523 132.72 52.4607 132.867C59.1367 141.77 66.2612 150.328 73.8066 158.508L74.0763 158.811C80.3165 165.687 86.0028 171.741 91.5092 177.593L94.2688 180.52C99.4026 185.917 104.665 191.492 110.703 197.111C118.224 204.429 126.799 210.579 136.143 215.353C137.227 209.812 138.21 204.425 139.156 199.215C129.678 197.599 120.624 194.084 112.539 188.88C103.808 183.265 96.0218 176.303 89.4694 168.252C82.8618 160.148 77.1684 151.34 72.4925 141.988C67.8683 132.693 63.81 123.126 60.3399 113.342C60.3267 113.253 60.326 113.163 60.3375 113.075C60.3363 112.941 60.3703 112.809 60.4363 112.692C60.5023 112.575 60.5978 112.478 60.7132 112.41C60.8678 112.316 61.0504 112.279 61.2295 112.305C61.4085 112.332 61.5727 112.42 61.6937 112.554C69.9121 121.702 76.8866 129.665 83.0264 136.682L83.6815 137.439C90.3736 145.087 95.8975 151.486 101.038 157.634L104.623 161.863C108.785 166.761 113.09 171.835 117.892 177.109C124.408 184.461 131.668 191.118 139.556 196.974L141.543 185.677L142.545 179.59C142.408 179.606 142.269 179.576 142.15 179.504C133.228 174.393 125.181 167.886 118.317 160.23C111.313 152.474 105.144 144.003 99.9116 134.958C91.638 120.94 85.0456 105.776 78.6738 91.1058C76.805 86.7985 74.9363 82.4912 73.0166 78.1844C72.9706 78.0895 72.9479 77.9851 72.9504 77.8798C72.9532 77.7343 72.9976 77.5927 73.0783 77.4716C73.159 77.3506 73.2726 77.2551 73.4057 77.1964C73.5388 77.1378 73.686 77.1184 73.8297 77.1407C73.9735 77.1629 74.1079 77.2258 74.2172 77.3219C82.3956 85.3752 90.0163 93.976 97.0264 103.065C102.803 110.468 108.152 118.195 113.048 126.209C117.847 134.038 122.229 142.202 126.481 150.088L127.257 151.594C131.994 160.619 137.194 169.394 142.836 177.883L145.734 160.245C146.241 157.214 146.7 154.349 147.108 151.65C121.706 128.918 102.345 97.55 87.9153 55.7495C87.9024 55.6696 87.9017 55.5881 87.9132 55.5079C87.916 55.352 87.9649 55.2003 88.0539 55.0721C88.1428 54.944 88.2678 54.8451 88.413 54.788C88.5582 54.731 88.717 54.7182 88.8695 54.7515C89.0219 54.7847 89.161 54.8624 89.2692 54.9747C105.344 72.6376 116.356 85.6395 125.101 99.704C133.845 113.768 140.336 128.933 147.576 148.39C147.997 145.589 148.368 142.979 148.78 140.597L150.366 130.054C138.177 116.028 128.36 100.104 121.304 82.9131C113.958 65.1051 108.544 46.5604 105.155 27.5973L105.154 27.5083C105.156 27.3523 105.203 27.2002 105.29 27.0707C105.377 26.9412 105.5 26.8398 105.644 26.7792C105.808 26.7156 105.989 26.709 106.158 26.7606C106.327 26.8122 106.474 26.9188 106.574 27.0636C119.896 46.8232 128.897 61.2033 135.514 76.1893C141.636 89.9078 145.675 103.975 151.016 125.801L151.317 123.853L151.315 123.7C150.755 117.771 150.448 111.754 150.395 105.651C150.121 74.2433 156.497 39.8785 169.715 1.20665C169.773 1.04139 169.886 0.900645 170.034 0.807335C170.182 0.714025 170.358 0.673618 170.532 0.692737C170.706 0.711857 170.868 0.789378 170.993 0.912634C171.117 1.03589 171.196 1.19763 171.217 1.37156L171.153 1.34669Z"/>
</mask>
<path d="M171.153 1.34669C176.218 42.5549 174.753 71.4087 152.741 123.878L152.653 124.006L151.873 129.367L151.952 129.659C151.983 129.791 151.979 129.928 151.94 130.058C151.901 130.188 151.828 130.305 151.73 130.398L150.218 140.813L149.726 144.15C151.701 141.653 153.497 139.106 155.243 136.624L157.982 132.785C159.891 130.06 161.863 127.245 163.937 124.455C169.283 117.308 175.054 110.489 181.218 104.034C192.433 92.1986 204.508 81.4368 217.278 70.0585L220.938 66.7965C221.073 66.6838 221.243 66.6213 221.419 66.6198C221.595 66.6183 221.767 66.6777 221.904 66.7881C222.047 66.8925 222.15 67.0418 222.198 67.212C222.245 67.3823 222.234 67.5636 222.166 67.7268C218.141 77.0026 213.437 85.9693 208.095 94.5543C203.685 101.592 198.653 108.22 193.058 114.358C187.501 120.394 181.445 125.951 174.955 130.971C173.237 132.321 171.469 133.659 169.599 135.049C167.729 136.439 165.58 137.933 163.608 139.234C159.092 142.258 154.304 144.854 149.306 146.989C148.718 151.038 148.109 155.532 147.274 160.435L145.164 173.692C150.711 166.192 156.947 159.228 163.791 152.89C166.993 149.785 170.093 146.541 173.268 143.117C176.746 139.425 180.349 135.591 184.271 131.844C197.323 119.306 213.475 107.822 235.076 95.7177C235.233 95.6288 235.417 95.5983 235.594 95.6317C235.771 95.6651 235.931 95.7601 236.044 95.9C236.163 96.0351 236.229 96.2083 236.23 96.388C236.232 96.5676 236.169 96.7419 236.053 96.8791C218.565 118.421 207.27 131.236 195.759 142.616C189.039 149.173 182.783 155.064 174.298 160.606C173.198 161.303 172.072 161.987 170.895 162.671L160.465 168.179C158.984 168.968 157.478 169.757 155.933 170.571C152.44 172.395 148.832 174.295 145.061 176.376C144.957 176.437 144.839 176.469 144.718 176.468L143.211 185.929C142.556 189.534 141.902 193.265 141.236 197.099C154.052 185.29 167.692 174.406 182.051 164.532C197.635 153.755 214.016 144.178 231.052 135.886C231.135 135.825 231.23 135.781 231.33 135.757C231.429 135.732 231.533 135.728 231.635 135.744C231.737 135.759 231.834 135.795 231.922 135.848C232.01 135.902 232.087 135.972 232.148 136.055C232.208 136.138 232.252 136.232 232.277 136.332C232.301 136.432 232.306 136.535 232.29 136.637C232.274 136.739 232.239 136.836 232.186 136.924C232.132 137.012 232.062 137.089 231.979 137.15C216.66 155.087 205.131 167.395 191.559 177.114C177.531 187.105 161.824 194.185 140.715 200.041C139.806 205.212 138.848 210.561 137.79 216.064C136.948 220.204 136.121 224.433 135.256 228.803C149.676 215.604 166.424 204.038 186.474 193.385C194.689 188.99 203.958 184.496 215.599 179.219C218.359 177.923 221.134 176.729 223.908 175.497C230.951 172.371 238.222 169.128 245.185 165.558C245.347 165.478 245.532 165.456 245.708 165.496C245.885 165.536 246.042 165.636 246.154 165.778C246.271 165.916 246.336 166.091 246.337 166.272C246.339 166.454 246.277 166.63 246.162 166.77C241.911 171.487 237.363 175.927 232.544 180.063C228.557 183.569 224.276 187.04 219.463 190.681C211.592 196.624 203.315 202.008 194.692 206.793C177.417 216.354 159.088 223.101 135.02 230.941C134.966 230.954 134.909 230.954 134.855 230.942C133.636 236.955 132.418 243.108 130.857 249.327L130.036 252.87C147.564 240.445 166.129 229.553 185.527 220.314C206.161 210.488 227.802 202.936 250.07 197.79C250.246 197.748 250.432 197.77 250.593 197.852C250.755 197.935 250.882 198.072 250.951 198.24C251.028 198.408 251.04 198.598 250.986 198.775C250.931 198.951 250.813 199.101 250.654 199.196C245.191 202.664 240.158 205.938 235.48 209.018C229.904 212.653 224.631 216.082 219.623 219.203C211.078 224.635 202.255 229.615 193.188 234.121C184.106 238.568 174.733 242.392 165.133 245.569C153.515 249.413 141.678 252.561 129.686 254.996L129.609 254.997L128.911 258.068C128.237 260.986 127.589 263.942 126.763 266.874L123.192 280.308C139.966 269.003 157.727 259.238 176.258 251.131C197.222 241.741 219.179 233.983 236.017 228.279C236.19 228.223 236.377 228.228 236.547 228.293C236.717 228.359 236.859 228.481 236.949 228.64C237.037 228.797 237.068 228.98 237.035 229.157C237.001 229.334 236.906 229.494 236.766 229.608C216.174 246.637 200.244 257.242 183.501 265.107C166.759 272.972 148.428 278.129 122.614 282.513L122.023 284.718C121.286 287.726 120.256 290.672 119.367 293.643L116.597 302.645L115.719 305.514C147.019 282.745 186.4 266.48 235.979 256.027C236.159 255.987 236.346 256.013 236.509 256.098C236.671 256.184 236.798 256.324 236.866 256.495C236.935 256.665 236.941 256.854 236.883 257.028C236.826 257.202 236.708 257.351 236.551 257.446C212.671 272.177 195.349 282.171 177.485 289.664C158.897 297.456 139.652 302.711 114.753 308.498L114.469 309.429L113.674 311.661L110.484 320.59L107.306 329.52C106.288 332.352 105.054 335.109 103.933 337.904C122.537 324.059 142.879 312.719 164.437 304.173C170.317 301.82 176.198 299.658 181.917 297.751C189.081 295.387 194.687 293.736 200.093 292.404C214.825 288.753 227.622 287.726 239.22 289.265C239.403 289.293 239.572 289.384 239.696 289.522C239.82 289.66 239.892 289.837 239.9 290.022C239.891 290.204 239.823 290.378 239.708 290.518C239.592 290.659 239.435 290.759 239.259 290.804C232.139 292.106 225.169 294.127 218.456 296.835C212.259 299.292 206.649 301.948 201.444 304.448C191.859 309.148 181.64 314.082 171.376 318.317C152.371 326.278 133.272 332.205 102.688 340.941L100.198 346.978L98.4044 351.317C97.7683 352.747 97.0811 354.139 96.4322 355.556L93.3225 362.056C100.925 358.938 108.168 355.327 115.182 351.819C117.714 350.551 120.246 349.291 122.779 348.04C131.11 343.936 142.178 338.638 154.016 334.046C165.103 329.634 176.564 326.228 188.261 323.866C201.87 321.204 213.933 320.629 225.124 322.082C225.305 322.11 225.472 322.199 225.596 322.334C225.72 322.47 225.793 322.643 225.804 322.827C225.818 323.01 225.765 323.192 225.653 323.338C225.542 323.485 225.381 323.585 225.201 323.62L218.855 325.062C218.309 325.181 217.764 325.3 217.269 325.432L209.964 327.683C209 327.958 208.049 328.323 207.111 328.687L205.463 329.286L201.128 330.875C200.304 331.201 199.481 331.551 198.67 331.889L196.998 332.59L192.993 334.227C192.233 334.552 191.473 334.889 190.726 335.239C190.194 335.473 189.675 335.706 189.155 335.927L181.301 339.416C174.22 342.568 167.532 345.538 160.702 348.307C151.003 352.252 141.069 355.592 130.956 358.307C124.701 359.964 118.939 361.209 113.263 362.149C110.126 362.647 106.913 363.158 103.457 363.417C102.885 363.422 102.313 363.504 101.754 363.572C100.611 363.684 99.4289 363.796 98.2081 363.794L92.7913 363.841C92.6846 363.844 92.5792 363.818 92.4854 363.767L88.4904 372.272L79.9692 388.178L78.5927 390.733C87.113 386.386 95.8996 381.96 104.957 377.901C115.07 373.298 125.483 369.384 136.124 366.184C147.229 362.824 158.669 360.691 170.238 359.821C182.166 358.871 194.17 359.861 205.781 362.753C205.957 362.799 206.111 362.905 206.217 363.053C206.323 363.2 206.374 363.381 206.36 363.562C206.342 363.745 206.263 363.915 206.134 364.046C206.006 364.177 205.836 364.259 205.654 364.28C191.436 365.574 180.146 368.75 169.796 371.88C164.901 373.398 160.26 374.913 155.847 376.376C150.953 377.983 146.325 379.498 141.594 380.939C131.334 384.106 122.123 386.526 112.59 388.529C100.87 391.045 88.986 392.73 77.0279 393.57L75.7118 395.769L71.262 403.158L68.4522 407.595C105.986 393.826 149.568 386.833 205.599 385.607C205.784 385.602 205.965 385.665 206.108 385.783C206.252 385.9 206.348 386.066 206.38 386.248C206.413 386.429 206.381 386.616 206.289 386.775C206.197 386.934 206.052 387.055 205.879 387.117C176.128 397.97 157.063 403.464 137.85 406.595C118.295 409.792 98.0189 410.605 67.8703 409.406C67.7343 409.398 67.6027 409.355 67.4877 409.282L66.7981 410.407C65.3181 412.76 63.7482 415.012 62.2548 417.288L53.4679 430.425L50.1245 434.917C67.459 427.335 85.9572 422.757 104.827 421.38C125.562 419.845 146.409 421.177 166.779 425.341C166.955 425.373 167.114 425.467 167.227 425.606C167.341 425.745 167.4 425.92 167.396 426.099C167.397 426.279 167.334 426.453 167.219 426.591C167.104 426.73 166.944 426.823 166.766 426.854C162.387 427.694 158.261 428.493 154.325 429.265C135.842 432.898 121.242 435.67 106.858 436.966C89.9726 438.664 72.8025 438.344 49.0568 437.89L47.8997 437.9L44.6449 442.341L40.5228 447.947L38.5244 450.647L36.4867 453.208L28.8259 462.787C26.4106 465.797 24.1846 468.639 22.0706 471.201L16.1289 478.132L4.92576 491.264L2.36356 489.1L13.6942 476.004L19.6743 469.111C21.7884 466.549 24.0021 463.757 26.4178 460.786L34.0666 451.296L36.117 448.735L38.1156 446.06L42.2382 440.505L51.0367 428.704L53.8739 424.495C49.5744 418.518 45.3027 412.807 40.853 407.098C36.4033 401.389 31.9566 396.036 27.2404 390.393L26.3284 389.346C21.0054 383.118 16.0808 376.561 11.5839 369.713C6.70679 362.353 3.12613 354.212 0.997195 345.644L0.995753 345.478C0.993353 345.331 1.0335 345.187 1.11137 345.062C1.18925 344.937 1.30152 344.838 1.43468 344.775C1.59358 344.7 1.77348 344.68 1.94484 344.72C2.11619 344.76 2.26881 344.858 2.37764 344.996C5.45208 348.783 8.82537 352.317 12.4651 355.564C15.1823 358.008 17.77 360.185 20.2808 362.287L21.9334 363.684C27.7343 368.325 33.15 373.427 38.1276 378.942C48.2878 390.565 54.1696 404.464 56.0589 421.322L59.8249 415.707C61.3185 413.456 62.9013 411.229 64.3815 408.889L68.7949 401.691L70.1364 399.492C54.9141 390.312 41.3791 378.589 30.1202 364.833C18.2448 350.355 8.85836 334.004 2.34468 316.448L2.34235 316.18C2.33851 316.048 2.3701 315.916 2.43389 315.799C2.49767 315.682 2.59134 315.585 2.70532 315.516C2.85585 315.422 3.034 315.383 3.21005 315.404C3.3861 315.426 3.54944 315.507 3.67283 315.635C9.15164 321.233 14.2557 326.148 18.7443 330.483C20.9758 332.638 23.1047 334.693 25.1567 336.684C32.1726 343.553 37.3322 349.002 41.8423 354.341C51.1058 365.222 59.3768 377.472 71.1648 397.856L73.2586 394.429L75.5278 390.709C76.2669 389.431 76.9298 388.154 77.6434 386.876L81.6484 379.503C54.6061 364.136 30.626 339.739 8.39891 304.924C8.30579 304.775 8.26562 304.598 8.28484 304.422C8.30406 304.247 8.38157 304.083 8.50493 303.957C8.62957 303.831 8.79407 303.753 8.97024 303.735C9.14641 303.717 9.32328 303.761 9.47053 303.86C48.155 328.726 60.8804 341.395 82.7872 377.395L86.1905 371.02L91.5731 359.77C82.2595 354.804 73.2892 349.219 64.7225 343.053C55.691 336.605 47.2716 329.339 39.5706 321.349C31.6378 313.036 24.6878 303.837 18.8577 293.935C13.0782 284.041 7.95071 273.781 3.50787 263.219C3.48862 263.118 3.48772 263.015 3.50521 262.914C3.50355 262.784 3.53484 262.656 3.59614 262.542C3.65743 262.428 3.74671 262.332 3.85558 262.262C4.00848 262.161 4.19199 262.118 4.37369 262.14C4.55539 262.162 4.72357 262.247 4.8485 262.38C14.9891 273.215 22.7288 281.426 29.8769 288.867C35.0999 294.302 39.9498 299.232 44.6329 303.998L50.3298 309.81C56.0269 315.648 62.8667 322.748 70.342 331.254C77.2262 339.065 84.4749 347.84 92.4862 358.032L94.1973 354.469C94.8464 353.078 95.5337 351.686 96.1827 350.281L97.9763 345.98L101.128 338.424C81.7136 331.217 64.0675 319.937 49.3752 305.342C41.6546 297.752 34.8153 289.314 28.9873 280.189C22.9267 270.855 18.3265 260.651 15.3454 249.928C15.3325 249.865 15.332 249.801 15.3438 249.738C15.3432 249.575 15.3939 249.416 15.4887 249.284C15.5835 249.151 15.7174 249.052 15.8717 249C16.026 248.948 16.1928 248.946 16.3483 248.994C16.5039 249.042 16.6404 249.138 16.7385 249.268L19.7109 253.273C20.2902 254.082 20.9965 254.864 21.5879 255.609L22.6671 256.871C24.1456 258.715 25.7118 260.405 27.214 262.045L28.4981 263.471C29.6027 264.733 30.7697 265.855 31.8858 266.977C32.6812 267.771 33.451 268.553 34.1697 269.309L39.6844 274.653C42.7875 277.589 45.7746 280.361 48.6593 283.057C52.5055 286.635 56.1847 290.023 59.8013 293.514C65.7131 299.185 71.8585 305.401 79.0465 313.044L83.0254 317.257C88.4547 323.008 94.5771 329.504 101.672 336.728C102.793 334.023 103.991 331.354 104.997 328.599L108.2 319.746L111.416 310.816L112.161 308.762C103.182 308.599 93.1634 305.94 83.0359 300.979C73.2995 296.106 64.305 289.873 56.3223 282.468C48.1811 275.007 40.9037 266.654 34.6268 257.568C28.1999 248.388 22.98 238.42 19.0954 227.909L19.0931 227.642C19.0921 227.506 19.1262 227.372 19.192 227.254C19.2578 227.135 19.3531 227.036 19.4686 226.964C19.6273 226.878 19.8105 226.848 19.9885 226.878C20.1665 226.909 20.3289 226.999 20.4493 227.134L21.0145 227.79C23.0572 230.163 24.9843 232.41 27.0241 234.465C28.783 236.382 30.6042 238.147 32.3613 239.861L33.3617 240.831C37.6708 245.003 41.7979 248.718 45.2709 251.791C48.3211 254.498 51.2556 257.067 54.1003 259.547C58.3552 263.325 62.3785 266.8 66.3518 270.376C68.9148 272.63 71.4779 274.897 74.0413 277.202C78.1681 280.879 82.4239 284.759 86.9848 288.635C87.574 289.126 88.1635 289.642 88.7657 290.159C90.0469 291.254 91.3285 292.4 92.7364 293.443L94.3757 294.764C95.8484 295.946 97.3724 297.179 99.0098 298.284L102.376 300.798C103.08 301.262 103.796 301.714 104.512 302.165L106.033 303.106C107.915 304.348 109.879 305.461 111.912 306.437L112.921 306.962L113.057 306.542L114.468 302.053L117.264 293.127C118.153 290.144 119.209 287.21 119.958 284.202L121.412 278.823C121.298 278.91 121.161 278.96 121.019 278.966C116.239 279.284 111.437 278.932 106.754 277.921L106.576 277.922C104.242 277.468 101.936 276.881 99.6687 276.164L98.9036 275.917C96.8632 275.26 94.7464 274.592 92.7552 273.732C83.5823 270.01 74.9107 265.156 66.9417 259.283C58.8666 253.406 51.366 246.778 44.5405 239.488C37.547 232.092 31.359 223.974 26.0809 215.271C26.007 215.153 25.9663 215.017 25.963 214.878C25.9565 214.728 25.9934 214.58 26.0693 214.451C26.1451 214.322 26.2567 214.218 26.3906 214.151C26.5245 214.084 26.6749 214.057 26.8237 214.073C26.9725 214.09 27.1133 214.149 27.2292 214.244C35.459 220.327 42.9646 225.03 49.5752 229.169C51.0839 230.109 52.5543 231.025 53.9866 231.941C60.5203 236.016 68.1927 240.884 75.6011 246.109C81.9976 250.491 88.1425 255.181 94.6967 260.147L95.9769 261.127C99.7019 263.931 103.401 266.683 107.494 269.432C108.082 269.809 108.684 270.211 109.285 270.612C110.794 271.629 112.355 272.671 114.003 273.572C114.438 273.81 114.872 274.06 115.281 274.337C116.01 274.763 116.751 275.214 117.505 275.589L121.336 277.438C121.501 277.515 121.633 277.649 121.708 277.816L124.8 266.344C125.639 263.425 126.287 260.481 126.974 257.576L127.44 255.588C127.356 255.645 127.261 255.685 127.161 255.705C118.032 257.26 107.401 255.801 97.2162 251.592C88.4869 248.018 79.8678 242.498 70.8729 234.718C67.3879 231.722 63.8239 228.421 59.6411 224.16C55.4583 219.898 51.9416 216.19 49.0243 212.68C40.9293 203.099 35.4198 193.978 32.25 184.85C32.2371 184.77 32.2364 184.689 32.2479 184.609C32.2467 184.451 32.2937 184.296 32.3826 184.166C32.4715 184.035 32.5982 183.935 32.7456 183.879C32.893 183.822 33.0542 183.812 33.2076 183.849C33.361 183.887 33.4993 183.97 33.604 184.088C37.5395 188.631 41.8884 192.8 46.5945 196.539C50.7693 199.885 54.6597 202.699 58.9465 205.765L59.3943 206.079C63.233 208.805 66.8034 211.381 70.2983 214.046C73.5502 216.561 76.9182 219.253 80.6076 222.349C82.9646 224.325 85.2837 226.314 87.6028 228.316C91.703 231.853 95.9567 235.504 100.541 239.113C104.302 242.102 108.247 244.854 112.35 247.352C117.059 250.24 122.095 252.557 127.352 254.254C127.53 254.311 127.68 254.432 127.775 254.593L129.111 248.936C130.045 245.112 130.89 241.417 131.684 237.71C131.596 237.729 131.505 237.73 131.417 237.712C121.095 236.626 111.052 233.699 101.763 229.069C92.2053 224.349 83.3252 218.366 75.3608 211.28C67.3245 204.153 59.991 196.271 53.461 187.743C46.9142 179.233 40.8384 170.371 35.2609 161.197C35.1652 161.044 35.126 160.862 35.15 160.683C35.174 160.504 35.2596 160.339 35.3922 160.216C35.5305 160.099 35.7054 160.034 35.8865 160.033C36.0677 160.031 36.2437 160.093 36.384 160.208C45.6777 167.261 54.5888 174.177 63.6291 181.334C71.7478 187.799 78.5747 193.411 85.083 198.95L105.584 216.688C113.836 223.893 122.639 230.44 131.913 236.271L132.003 236.359C133.432 229.683 134.698 223.149 136.016 216.842C125.738 216.749 115.637 214.153 106.588 209.279C97.1755 204.274 88.7124 197.66 81.5819 189.735C74.3561 181.805 68.1685 172.988 63.1683 163.496C58.0314 153.987 53.9687 143.936 51.0549 133.528L51.0533 133.337C51.0509 133.19 51.091 133.045 51.1689 132.92C51.2468 132.796 51.359 132.696 51.4922 132.634C51.6553 132.553 51.8417 132.532 52.0188 132.574C52.1959 132.617 52.3523 132.72 52.4607 132.867C59.1367 141.77 66.2612 150.328 73.8066 158.508L74.0763 158.811C80.3165 165.687 86.0028 171.741 91.5092 177.593L94.2688 180.52C99.4026 185.917 104.665 191.492 110.703 197.111C118.224 204.429 126.799 210.579 136.143 215.353C137.227 209.812 138.21 204.425 139.156 199.215C129.678 197.599 120.624 194.084 112.539 188.88C103.808 183.265 96.0218 176.303 89.4694 168.252C82.8618 160.148 77.1684 151.34 72.4925 141.988C67.8683 132.693 63.81 123.126 60.3399 113.342C60.3267 113.253 60.326 113.163 60.3375 113.075C60.3363 112.941 60.3703 112.809 60.4363 112.692C60.5023 112.575 60.5978 112.478 60.7132 112.41C60.8678 112.316 61.0504 112.279 61.2295 112.305C61.4085 112.332 61.5727 112.42 61.6937 112.554C69.9121 121.702 76.8866 129.665 83.0264 136.682L83.6815 137.439C90.3736 145.087 95.8975 151.486 101.038 157.634L104.623 161.863C108.785 166.761 113.09 171.835 117.892 177.109C124.408 184.461 131.668 191.118 139.556 196.974L141.543 185.677L142.545 179.59C142.408 179.606 142.269 179.576 142.15 179.504C133.228 174.393 125.181 167.886 118.317 160.23C111.313 152.474 105.144 144.003 99.9116 134.958C91.638 120.94 85.0456 105.776 78.6738 91.1058C76.805 86.7985 74.9363 82.4912 73.0166 78.1844C72.9706 78.0895 72.9479 77.9851 72.9504 77.8798C72.9532 77.7343 72.9976 77.5927 73.0783 77.4716C73.159 77.3506 73.2726 77.2551 73.4057 77.1964C73.5388 77.1378 73.686 77.1184 73.8297 77.1407C73.9735 77.1629 74.1079 77.2258 74.2172 77.3219C82.3956 85.3752 90.0163 93.976 97.0264 103.065C102.803 110.468 108.152 118.195 113.048 126.209C117.847 134.038 122.229 142.202 126.481 150.088L127.257 151.594C131.994 160.619 137.194 169.394 142.836 177.883L145.734 160.245C146.241 157.214 146.7 154.349 147.108 151.65C121.706 128.918 102.345 97.55 87.9153 55.7495C87.9024 55.6696 87.9017 55.5881 87.9132 55.5079C87.916 55.352 87.9649 55.2003 88.0539 55.0721C88.1428 54.944 88.2678 54.8451 88.413 54.788C88.5582 54.731 88.717 54.7182 88.8695 54.7515C89.0219 54.7847 89.161 54.8624 89.2692 54.9747C105.344 72.6376 116.356 85.6395 125.101 99.704C133.845 113.768 140.336 128.933 147.576 148.39C147.997 145.589 148.368 142.979 148.78 140.597L150.366 130.054C138.177 116.028 128.36 100.104 121.304 82.9131C113.958 65.1051 108.544 46.5604 105.155 27.5973L105.154 27.5083C105.156 27.3523 105.203 27.2002 105.29 27.0707C105.377 26.9412 105.5 26.8398 105.644 26.7792C105.808 26.7156 105.989 26.709 106.158 26.7606C106.327 26.8122 106.474 26.9188 106.574 27.0636C119.896 46.8232 128.897 61.2033 135.514 76.1893C141.636 89.9078 145.675 103.975 151.016 125.801L151.317 123.853L151.315 123.7C150.755 117.771 150.448 111.754 150.395 105.651C150.121 74.2433 156.497 39.8785 169.715 1.20665C169.773 1.04139 169.886 0.900645 170.034 0.807335C170.182 0.714025 170.358 0.673618 170.532 0.692737C170.706 0.711857 170.868 0.789378 170.993 0.912634C171.117 1.03589 171.196 1.19763 171.217 1.37156L171.153 1.34669Z" stroke="white" stroke-opacity="0.53" stroke-width="2" mask="url(#path-1-inside-1_2_1081)"/>
</svg>
