<svg width="29" height="16" viewBox="0 0 29 16" fill="none" xmlns="http://www.w3.org/2000/svg">
<path d="M28.2504 14.271C28.1752 14.1448 27.7096 13.1317 25.4695 11.0494C23.1243 8.86903 23.4393 9.22309 26.264 5.45294C27.9844 3.15684 28.6722 1.75465 28.4569 1.15521C28.2522 0.583812 26.9868 0.734548 26.9868 0.734548L22.7795 0.759087C22.7795 0.759087 22.468 0.717021 22.2352 0.855488C22.0095 0.992202 21.8642 1.3077 21.8642 1.3077C21.8642 1.3077 21.1974 3.08498 20.3083 4.59584C18.434 7.78409 17.6832 7.95235 17.3769 7.75429C16.6646 7.29332 16.8431 5.89989 16.8431 4.91134C16.8431 1.82125 17.3104 0.532983 15.9313 0.199961C15.4727 0.0895384 15.1367 0.0159232 13.9659 0.00365397C12.4643 -0.0121207 11.1919 0.00891219 10.4726 0.361214C9.99309 0.596082 9.62381 1.12015 9.84958 1.14995C10.1278 1.18676 10.7579 1.31997 11.0922 1.77568C11.5245 2.36285 11.5087 3.68442 11.5087 3.68442C11.5087 3.68442 11.7572 7.32136 10.9294 7.77357C10.3606 8.08381 9.58181 7.45106 7.91043 4.55728C7.05462 3.07621 6.40707 1.4374 6.40707 1.4374C6.40707 1.4374 6.28282 1.13242 6.06055 0.969416C5.79103 0.771356 5.413 0.708257 5.413 0.708257L1.41221 0.732796C1.41221 0.732796 0.811914 0.750324 0.591397 1.01148C0.395383 1.2446 0.575646 1.72485 0.575646 1.72485C0.575646 1.72485 3.70838 9.06359 7.25414 12.7636C10.5076 16.1552 14.2004 15.9326 14.2004 15.9326H15.8735C15.8735 15.9326 16.3793 15.8765 16.6366 15.5978C16.8746 15.3419 16.8658 14.8617 16.8658 14.8617C16.8658 14.8617 16.8326 12.6129 17.8757 12.2816C18.903 11.9556 20.2226 14.455 21.6209 15.4173C22.678 16.1447 23.4813 15.9852 23.4813 15.9852L27.2214 15.9326C27.2214 15.9326 29.178 15.8117 28.2504 14.271Z" fill="white"/>
</svg>
