<svg width="47" height="47" viewBox="0 0 47 47" fill="none" xmlns="http://www.w3.org/2000/svg">
<path d="M36.7504 30.271C36.6752 30.1448 36.2096 29.1317 33.9695 27.0494C31.6243 24.869 31.9393 25.2231 34.764 21.4529C36.4844 19.1568 37.1722 17.7546 36.9569 17.1552C36.7522 16.5838 35.4868 16.7345 35.4868 16.7345L31.2795 16.7591C31.2795 16.7591 30.968 16.717 30.7352 16.8555C30.5095 16.9922 30.3642 17.3077 30.3642 17.3077C30.3642 17.3077 29.6974 19.085 28.8083 20.5958C26.934 23.7841 26.1832 23.9523 25.8769 23.7543C25.1646 23.2933 25.3431 21.8999 25.3431 20.9113C25.3431 17.8213 25.8104 16.533 24.4313 16.2C23.9727 16.0895 23.6367 16.0159 22.4659 16.0037C20.9643 15.9879 19.6919 16.0089 18.9726 16.3612C18.4931 16.5961 18.1238 17.1202 18.3496 17.1499C18.6278 17.1868 19.2579 17.32 19.5922 17.7757C20.0245 18.3628 20.0087 19.6844 20.0087 19.6844C20.0087 19.6844 20.2572 23.3214 19.4294 23.7736C18.8606 24.0838 18.0818 23.4511 16.4104 20.5573C15.5546 19.0762 14.9071 17.4374 14.9071 17.4374C14.9071 17.4374 14.7828 17.1324 14.5605 16.9694C14.291 16.7714 13.913 16.7083 13.913 16.7083L9.91221 16.7328C9.91221 16.7328 9.31191 16.7503 9.0914 17.0115C8.89538 17.2446 9.07565 17.7248 9.07565 17.7248C9.07565 17.7248 12.2084 25.0636 15.7541 28.7636C19.0076 32.1552 22.7004 31.9326 22.7004 31.9326H24.3735C24.3735 31.9326 24.8793 31.8765 25.1366 31.5978C25.3746 31.3419 25.3658 30.8617 25.3658 30.8617C25.3658 30.8617 25.3326 28.6129 26.3757 28.2816C27.403 27.9556 28.7226 30.455 30.1209 31.4173C31.178 32.1447 31.9813 31.9852 31.9813 31.9852L35.7214 31.9326C35.7214 31.9326 37.678 31.8117 36.7504 30.271Z" fill="white"/>
<circle cx="23.5" cy="23.5" r="23" stroke="white"/>
</svg>
