<svg width="312" height="134" viewBox="0 0 312 134" fill="none" xmlns="http://www.w3.org/2000/svg">
<path d="M0 82.5045V42.4778H34.1249V51.9869H9.87413V82.5045H0Z" fill="white"/>
<path d="M39.9314 82.5045V42.4778H62.0004C62.5132 42.4778 63.1912 42.4778 64.0517 42.5212C64.8223 42.5402 65.5912 42.6011 66.3551 42.7038C69.0541 42.9371 71.6729 43.7399 74.0389 45.0593C75.9066 46.1294 77.4341 47.7052 78.4457 49.6052C79.3781 51.498 79.8631 53.5797 79.8631 55.6897C79.8631 57.7996 79.3781 59.8813 78.4457 61.7741C77.4196 63.6692 75.8881 65.2428 74.0215 66.32C71.6656 67.6351 69.0596 68.4406 66.3725 68.6842C65.6945 68.7538 64.9209 68.8146 64.0517 68.8494C63.1825 68.8841 62.5046 68.9015 62.0178 68.9015H49.849V82.4697L39.9314 82.5045ZM49.8055 61.8784H61.5658C62.0815 61.8784 62.6378 61.861 63.2347 61.8262C63.7958 61.7921 64.3536 61.7166 64.9035 61.6002C66.0393 61.4146 67.1047 60.9284 67.9892 60.1921C68.6743 59.6051 69.1954 58.8504 69.5016 58.0017C70.0579 56.5225 70.0579 54.8916 69.5016 53.4123C69.1954 52.5637 68.6743 51.809 67.9892 51.222C67.1047 50.4857 66.0393 49.9995 64.9035 49.8138C64.3541 49.6963 63.7959 49.6236 63.2347 49.5965C62.6349 49.5965 62.0786 49.5357 61.5658 49.5357H49.8055V61.8784Z" fill="white"/>
<path d="M129.894 82.5045H119.872V55.82L97.142 82.5045H87.1201V42.4778H97.142V69.1623L119.872 42.4778H129.894V82.5045Z" fill="white"/>
<path d="M140.046 82.5045V42.4778H149.92V57.7757H173.302V42.4778H183.176V82.5045H173.31V67.3109H149.929V82.5045H140.046Z" fill="white"/>
<path d="M219.43 133.657L226.688 122.427L208.826 93.6392H220.012L231.851 114.5L244.124 93.6392H254.65L229.965 133.622L219.43 133.657Z" fill="white"/>
<path d="M259.726 133.657V93.6738H268.583L285.863 120.245L303.143 93.6738H312V133.657H302.778V109.754L287.601 133.657H284.125L268.957 109.754V133.657H259.726Z" fill="white"/>
<path d="M271.026 0H259.283L203.367 69.0581V42.4779H193.345V81.4355L151.059 133.666H163.297L224.88 57.2456L226.097 55.8201V82.5046H236.119V43.3123L271.026 0Z" fill="#C7EF00"/>
</svg>
